<mxfile host="Electron" modified="2023-04-27T19:21:52.339Z" agent="Mozilla/5.0 (Windows NT 10.0; Win64; x64) AppleWebKit/537.36 (KHTML, like Gecko) draw.io/21.2.1 Chrome/112.0.5615.87 Electron/24.1.2 Safari/537.36" etag="_HnM9N3vDVB6ZZejz5ZD" version="21.2.1" type="device">
  <diagram name="Página-1" id="YU5_WaTmyukLPnRRudGf">
    <mxGraphModel dx="1434" dy="844" grid="1" gridSize="10" guides="1" tooltips="1" connect="1" arrows="1" fold="1" page="1" pageScale="1" pageWidth="827" pageHeight="1169" math="0" shadow="0">
      <root>
        <mxCell id="0" />
        <mxCell id="1" parent="0" />
        <mxCell id="XAqeLbuuqDxMd4Kl4Otn-5" value="Actuaciones" style="whiteSpace=wrap;html=1;align=center;fillColor=#dae8fc;strokeColor=#6c8ebf;" parent="1" vertex="1">
          <mxGeometry x="100" y="430" width="90" height="30" as="geometry" />
        </mxCell>
        <mxCell id="XAqeLbuuqDxMd4Kl4Otn-6" value="Tipos de Instrumentos" style="whiteSpace=wrap;html=1;align=center;fillColor=#dae8fc;strokeColor=#6c8ebf;" parent="1" vertex="1">
          <mxGeometry x="440" y="70" width="90" height="30" as="geometry" />
        </mxCell>
        <mxCell id="XAqeLbuuqDxMd4Kl4Otn-7" value="Instrumentos" style="whiteSpace=wrap;html=1;align=center;fillColor=#dae8fc;strokeColor=#6c8ebf;" parent="1" vertex="1">
          <mxGeometry x="480" y="210" width="90" height="30" as="geometry" />
        </mxCell>
        <mxCell id="XAqeLbuuqDxMd4Kl4Otn-8" value="Músicos" style="whiteSpace=wrap;html=1;align=center;fillColor=#dae8fc;strokeColor=#6c8ebf;" parent="1" vertex="1">
          <mxGeometry x="500" y="455" width="90" height="30" as="geometry" />
        </mxCell>
        <mxCell id="XAqeLbuuqDxMd4Kl4Otn-9" value="Obras" style="whiteSpace=wrap;html=1;align=center;fillColor=#dae8fc;strokeColor=#6c8ebf;" parent="1" vertex="1">
          <mxGeometry x="100" y="130" width="90" height="30" as="geometry" />
        </mxCell>
        <mxCell id="XAqeLbuuqDxMd4Kl4Otn-10" value="&lt;div&gt;Historial de&lt;br&gt;&lt;/div&gt;&lt;div&gt;Préstamos&lt;/div&gt;" style="shape=ext;margin=3;double=1;whiteSpace=wrap;html=1;align=center;fillColor=#d5e8d4;strokeColor=#82b366;" parent="1" vertex="1">
          <mxGeometry x="455" y="320" width="105" height="40" as="geometry" />
        </mxCell>
        <mxCell id="XAqeLbuuqDxMd4Kl4Otn-12" value="Fecha" style="ellipse;whiteSpace=wrap;html=1;align=center;fillColor=#dae8fc;strokeColor=#6c8ebf;" parent="1" vertex="1">
          <mxGeometry x="40" y="480" width="80" height="30" as="geometry" />
        </mxCell>
        <mxCell id="XAqeLbuuqDxMd4Kl4Otn-13" value="Recinto" style="ellipse;whiteSpace=wrap;html=1;align=center;fillColor=#dae8fc;strokeColor=#6c8ebf;" parent="1" vertex="1">
          <mxGeometry x="150" y="480" width="80" height="30" as="geometry" />
        </mxCell>
        <mxCell id="XAqeLbuuqDxMd4Kl4Otn-14" value="" style="endArrow=none;html=1;rounded=0;exitX=0.5;exitY=1;exitDx=0;exitDy=0;entryX=0.5;entryY=0;entryDx=0;entryDy=0;" parent="1" source="XAqeLbuuqDxMd4Kl4Otn-5" target="XAqeLbuuqDxMd4Kl4Otn-13" edge="1">
          <mxGeometry relative="1" as="geometry">
            <mxPoint x="340" y="360" as="sourcePoint" />
            <mxPoint x="500" y="360" as="targetPoint" />
          </mxGeometry>
        </mxCell>
        <mxCell id="XAqeLbuuqDxMd4Kl4Otn-15" value="" style="endArrow=none;html=1;rounded=0;exitX=0.25;exitY=1;exitDx=0;exitDy=0;entryX=0.5;entryY=0;entryDx=0;entryDy=0;" parent="1" source="XAqeLbuuqDxMd4Kl4Otn-5" target="XAqeLbuuqDxMd4Kl4Otn-12" edge="1">
          <mxGeometry relative="1" as="geometry">
            <mxPoint x="340" y="360" as="sourcePoint" />
            <mxPoint x="500" y="360" as="targetPoint" />
          </mxGeometry>
        </mxCell>
        <mxCell id="XAqeLbuuqDxMd4Kl4Otn-16" value="" style="endArrow=none;html=1;rounded=0;exitX=0;exitY=0.5;exitDx=0;exitDy=0;entryX=1;entryY=0.5;entryDx=0;entryDy=0;" parent="1" source="XAqeLbuuqDxMd4Kl4Otn-5" target="XAqeLbuuqDxMd4Kl4Otn-19" edge="1">
          <mxGeometry relative="1" as="geometry">
            <mxPoint x="340" y="360" as="sourcePoint" />
            <mxPoint x="79.9999999999975" y="435" as="targetPoint" />
          </mxGeometry>
        </mxCell>
        <mxCell id="XAqeLbuuqDxMd4Kl4Otn-19" value="Id Actuación" style="ellipse;whiteSpace=wrap;html=1;align=center;fontStyle=4;fillColor=#dae8fc;strokeColor=#6c8ebf;" parent="1" vertex="1">
          <mxGeometry x="10" y="420" width="80" height="30" as="geometry" />
        </mxCell>
        <mxCell id="XAqeLbuuqDxMd4Kl4Otn-20" value="&lt;div&gt;Basada&lt;/div&gt;&lt;div&gt;en&lt;br&gt;&lt;/div&gt;" style="shape=rhombus;perimeter=rhombusPerimeter;whiteSpace=wrap;html=1;align=center;fillColor=#fff2cc;strokeColor=#d6b656;" parent="1" vertex="1">
          <mxGeometry x="20" y="115" width="70" height="60" as="geometry" />
        </mxCell>
        <mxCell id="XAqeLbuuqDxMd4Kl4Otn-26" value="" style="endArrow=none;html=1;rounded=0;entryX=0.5;entryY=1;entryDx=0;entryDy=0;" parent="1" target="XAqeLbuuqDxMd4Kl4Otn-20" edge="1">
          <mxGeometry relative="1" as="geometry">
            <mxPoint x="110" y="160" as="sourcePoint" />
            <mxPoint x="520" y="310" as="targetPoint" />
            <Array as="points">
              <mxPoint x="110" y="190" />
              <mxPoint x="55" y="190" />
            </Array>
          </mxGeometry>
        </mxCell>
        <mxCell id="XAqeLbuuqDxMd4Kl4Otn-27" value="1" style="resizable=0;html=1;whiteSpace=wrap;align=right;verticalAlign=bottom;" parent="XAqeLbuuqDxMd4Kl4Otn-26" connectable="0" vertex="1">
          <mxGeometry x="1" relative="1" as="geometry">
            <mxPoint x="-5" y="15" as="offset" />
          </mxGeometry>
        </mxCell>
        <mxCell id="XAqeLbuuqDxMd4Kl4Otn-28" value="Id Obra" style="ellipse;whiteSpace=wrap;html=1;align=center;fontStyle=4;fillColor=#dae8fc;strokeColor=#6c8ebf;" parent="1" vertex="1">
          <mxGeometry x="80" y="50" width="90" height="30" as="geometry" />
        </mxCell>
        <mxCell id="XAqeLbuuqDxMd4Kl4Otn-29" value="" style="endArrow=none;html=1;rounded=0;exitX=0.5;exitY=1;exitDx=0;exitDy=0;entryX=0.5;entryY=0;entryDx=0;entryDy=0;" parent="1" source="XAqeLbuuqDxMd4Kl4Otn-28" target="XAqeLbuuqDxMd4Kl4Otn-9" edge="1">
          <mxGeometry relative="1" as="geometry">
            <mxPoint x="360" y="310" as="sourcePoint" />
            <mxPoint x="520" y="310" as="targetPoint" />
          </mxGeometry>
        </mxCell>
        <mxCell id="XAqeLbuuqDxMd4Kl4Otn-31" value="Título" style="ellipse;whiteSpace=wrap;html=1;align=center;fillColor=#dae8fc;strokeColor=#6c8ebf;" parent="1" vertex="1">
          <mxGeometry x="150" y="10" width="80" height="30" as="geometry" />
        </mxCell>
        <mxCell id="XAqeLbuuqDxMd4Kl4Otn-32" value="" style="endArrow=none;html=1;rounded=0;exitX=0.693;exitY=0;exitDx=0;exitDy=0;exitPerimeter=0;entryX=0.383;entryY=1;entryDx=0;entryDy=0;entryPerimeter=0;" parent="1" source="XAqeLbuuqDxMd4Kl4Otn-9" target="XAqeLbuuqDxMd4Kl4Otn-31" edge="1">
          <mxGeometry relative="1" as="geometry">
            <mxPoint x="360" y="310" as="sourcePoint" />
            <mxPoint x="520" y="310" as="targetPoint" />
          </mxGeometry>
        </mxCell>
        <mxCell id="XAqeLbuuqDxMd4Kl4Otn-33" value="&lt;div&gt;Se&lt;/div&gt;&lt;div&gt;interpreta&lt;/div&gt;" style="shape=rhombus;perimeter=rhombusPerimeter;whiteSpace=wrap;html=1;align=center;fillColor=#f8cecc;strokeColor=#b85450;" parent="1" vertex="1">
          <mxGeometry x="110" y="260" width="70" height="60" as="geometry" />
        </mxCell>
        <mxCell id="XAqeLbuuqDxMd4Kl4Otn-35" value="" style="shape=link;html=1;rounded=0;exitX=0.5;exitY=0;exitDx=0;exitDy=0;entryX=0.5;entryY=1;entryDx=0;entryDy=0;" parent="1" source="XAqeLbuuqDxMd4Kl4Otn-5" target="XAqeLbuuqDxMd4Kl4Otn-33" edge="1">
          <mxGeometry relative="1" as="geometry">
            <mxPoint x="360" y="310" as="sourcePoint" />
            <mxPoint x="520" y="310" as="targetPoint" />
          </mxGeometry>
        </mxCell>
        <mxCell id="XAqeLbuuqDxMd4Kl4Otn-36" value="N" style="resizable=0;html=1;whiteSpace=wrap;align=right;verticalAlign=bottom;" parent="XAqeLbuuqDxMd4Kl4Otn-35" connectable="0" vertex="1">
          <mxGeometry x="1" relative="1" as="geometry">
            <mxPoint x="-5" y="10" as="offset" />
          </mxGeometry>
        </mxCell>
        <mxCell id="XAqeLbuuqDxMd4Kl4Otn-37" value="" style="endArrow=none;html=1;rounded=0;exitX=0.5;exitY=0;exitDx=0;exitDy=0;entryX=0.5;entryY=1;entryDx=0;entryDy=0;" parent="1" source="XAqeLbuuqDxMd4Kl4Otn-33" target="XAqeLbuuqDxMd4Kl4Otn-9" edge="1">
          <mxGeometry relative="1" as="geometry">
            <mxPoint x="360" y="310" as="sourcePoint" />
            <mxPoint x="520" y="310" as="targetPoint" />
          </mxGeometry>
        </mxCell>
        <mxCell id="XAqeLbuuqDxMd4Kl4Otn-38" value="M" style="resizable=0;html=1;whiteSpace=wrap;align=right;verticalAlign=bottom;" parent="XAqeLbuuqDxMd4Kl4Otn-37" connectable="0" vertex="1">
          <mxGeometry x="1" relative="1" as="geometry">
            <mxPoint x="-5" y="90" as="offset" />
          </mxGeometry>
        </mxCell>
        <mxCell id="XAqeLbuuqDxMd4Kl4Otn-39" value="Autor" style="ellipse;shape=doubleEllipse;margin=3;whiteSpace=wrap;html=1;align=center;fillColor=#dae8fc;strokeColor=#6c8ebf;" parent="1" vertex="1">
          <mxGeometry x="180" y="50" width="80" height="30" as="geometry" />
        </mxCell>
        <mxCell id="XAqeLbuuqDxMd4Kl4Otn-40" value="" style="endArrow=none;html=1;rounded=0;exitX=0.831;exitY=0;exitDx=0;exitDy=0;exitPerimeter=0;entryX=0;entryY=1;entryDx=0;entryDy=0;" parent="1" source="XAqeLbuuqDxMd4Kl4Otn-9" target="XAqeLbuuqDxMd4Kl4Otn-39" edge="1">
          <mxGeometry relative="1" as="geometry">
            <mxPoint x="360" y="310" as="sourcePoint" />
            <mxPoint x="520" y="310" as="targetPoint" />
          </mxGeometry>
        </mxCell>
        <mxCell id="XAqeLbuuqDxMd4Kl4Otn-41" value="Época" style="ellipse;whiteSpace=wrap;html=1;align=center;fillColor=#dae8fc;strokeColor=#6c8ebf;" parent="1" vertex="1">
          <mxGeometry x="260" y="60" width="80" height="30" as="geometry" />
        </mxCell>
        <mxCell id="XAqeLbuuqDxMd4Kl4Otn-42" value="Género" style="ellipse;whiteSpace=wrap;html=1;align=center;fillColor=#dae8fc;strokeColor=#6c8ebf;" parent="1" vertex="1">
          <mxGeometry x="230" y="100" width="80" height="30" as="geometry" />
        </mxCell>
        <mxCell id="XAqeLbuuqDxMd4Kl4Otn-43" value="" style="endArrow=none;html=1;rounded=0;exitX=1;exitY=0;exitDx=0;exitDy=0;entryX=0;entryY=0.5;entryDx=0;entryDy=0;" parent="1" source="XAqeLbuuqDxMd4Kl4Otn-9" target="XAqeLbuuqDxMd4Kl4Otn-41" edge="1">
          <mxGeometry relative="1" as="geometry">
            <mxPoint x="360" y="310" as="sourcePoint" />
            <mxPoint x="520" y="310" as="targetPoint" />
          </mxGeometry>
        </mxCell>
        <mxCell id="XAqeLbuuqDxMd4Kl4Otn-44" value="" style="endArrow=none;html=1;rounded=0;exitX=1;exitY=0.25;exitDx=0;exitDy=0;entryX=0;entryY=0.5;entryDx=0;entryDy=0;" parent="1" source="XAqeLbuuqDxMd4Kl4Otn-9" target="XAqeLbuuqDxMd4Kl4Otn-42" edge="1">
          <mxGeometry relative="1" as="geometry">
            <mxPoint x="360" y="310" as="sourcePoint" />
            <mxPoint x="520" y="310" as="targetPoint" />
          </mxGeometry>
        </mxCell>
        <mxCell id="XAqeLbuuqDxMd4Kl4Otn-45" value="Necesita" style="shape=rhombus;perimeter=rhombusPerimeter;whiteSpace=wrap;html=1;align=center;fillColor=#f8cecc;strokeColor=#b85450;" parent="1" vertex="1">
          <mxGeometry x="300" y="115" width="70" height="60" as="geometry" />
        </mxCell>
        <mxCell id="XAqeLbuuqDxMd4Kl4Otn-46" value="" style="shape=link;html=1;rounded=0;exitX=1;exitY=0.5;exitDx=0;exitDy=0;entryX=0;entryY=0.5;entryDx=0;entryDy=0;" parent="1" source="XAqeLbuuqDxMd4Kl4Otn-9" target="XAqeLbuuqDxMd4Kl4Otn-45" edge="1">
          <mxGeometry relative="1" as="geometry">
            <mxPoint x="360" y="310" as="sourcePoint" />
            <mxPoint x="520" y="310" as="targetPoint" />
          </mxGeometry>
        </mxCell>
        <mxCell id="XAqeLbuuqDxMd4Kl4Otn-47" value="N" style="resizable=0;html=1;whiteSpace=wrap;align=right;verticalAlign=bottom;" parent="XAqeLbuuqDxMd4Kl4Otn-46" connectable="0" vertex="1">
          <mxGeometry x="1" relative="1" as="geometry" />
        </mxCell>
        <mxCell id="XAqeLbuuqDxMd4Kl4Otn-48" value="&lt;div&gt;Número&lt;/div&gt;&lt;div&gt;de tipos&lt;br&gt;&lt;/div&gt;" style="ellipse;whiteSpace=wrap;html=1;align=center;fillColor=#f8cecc;strokeColor=#b85450;" parent="1" vertex="1">
          <mxGeometry x="210" y="160" width="90" height="40" as="geometry" />
        </mxCell>
        <mxCell id="XAqeLbuuqDxMd4Kl4Otn-49" value="" style="endArrow=none;html=1;rounded=0;exitX=1;exitY=0;exitDx=0;exitDy=0;entryX=0;entryY=1;entryDx=0;entryDy=0;" parent="1" source="XAqeLbuuqDxMd4Kl4Otn-48" target="XAqeLbuuqDxMd4Kl4Otn-45" edge="1">
          <mxGeometry relative="1" as="geometry">
            <mxPoint x="360" y="310" as="sourcePoint" />
            <mxPoint x="520" y="310" as="targetPoint" />
          </mxGeometry>
        </mxCell>
        <mxCell id="XAqeLbuuqDxMd4Kl4Otn-50" value="" style="endArrow=none;html=1;rounded=0;exitX=0;exitY=0.5;exitDx=0;exitDy=0;entryX=1;entryY=0.5;entryDx=0;entryDy=0;" parent="1" source="XAqeLbuuqDxMd4Kl4Otn-6" target="XAqeLbuuqDxMd4Kl4Otn-45" edge="1">
          <mxGeometry relative="1" as="geometry">
            <mxPoint x="380" y="310" as="sourcePoint" />
            <mxPoint x="390" y="145" as="targetPoint" />
            <Array as="points">
              <mxPoint x="410" y="85" />
              <mxPoint x="410" y="145" />
            </Array>
          </mxGeometry>
        </mxCell>
        <mxCell id="XAqeLbuuqDxMd4Kl4Otn-51" value="M" style="resizable=0;html=1;whiteSpace=wrap;align=right;verticalAlign=bottom;" parent="XAqeLbuuqDxMd4Kl4Otn-50" connectable="0" vertex="1">
          <mxGeometry x="1" relative="1" as="geometry">
            <mxPoint x="10" as="offset" />
          </mxGeometry>
        </mxCell>
        <mxCell id="XAqeLbuuqDxMd4Kl4Otn-53" value="" style="endArrow=none;html=1;rounded=0;exitX=0.5;exitY=1;exitDx=0;exitDy=0;entryX=0;entryY=0;entryDx=0;entryDy=0;" parent="1" source="za0L7de45CTUgm3J9eNV-29" target="XAqeLbuuqDxMd4Kl4Otn-6" edge="1">
          <mxGeometry relative="1" as="geometry">
            <mxPoint x="420.5" y="60" as="sourcePoint" />
            <mxPoint x="540" y="310" as="targetPoint" />
          </mxGeometry>
        </mxCell>
        <mxCell id="XAqeLbuuqDxMd4Kl4Otn-54" value="Nombre" style="ellipse;whiteSpace=wrap;html=1;align=center;fontStyle=4;fillColor=#dae8fc;strokeColor=#6c8ebf;" parent="1" vertex="1">
          <mxGeometry x="460" y="20" width="80" height="30" as="geometry" />
        </mxCell>
        <mxCell id="XAqeLbuuqDxMd4Kl4Otn-55" value="" style="endArrow=none;html=1;rounded=0;exitX=0.5;exitY=1;exitDx=0;exitDy=0;entryX=0.5;entryY=0;entryDx=0;entryDy=0;" parent="1" source="XAqeLbuuqDxMd4Kl4Otn-54" target="XAqeLbuuqDxMd4Kl4Otn-6" edge="1">
          <mxGeometry relative="1" as="geometry">
            <mxPoint x="492.32000000000016" y="47.50999999999999" as="sourcePoint" />
            <mxPoint x="540" y="270" as="targetPoint" />
          </mxGeometry>
        </mxCell>
        <mxCell id="XAqeLbuuqDxMd4Kl4Otn-56" value="Categoría" style="ellipse;whiteSpace=wrap;html=1;align=center;fillColor=#dae8fc;strokeColor=#6c8ebf;" parent="1" vertex="1">
          <mxGeometry x="540" y="40" width="80" height="30" as="geometry" />
        </mxCell>
        <mxCell id="XAqeLbuuqDxMd4Kl4Otn-57" value="" style="endArrow=none;html=1;rounded=0;exitX=1;exitY=0;exitDx=0;exitDy=0;entryX=0;entryY=1;entryDx=0;entryDy=0;" parent="1" source="XAqeLbuuqDxMd4Kl4Otn-6" target="XAqeLbuuqDxMd4Kl4Otn-56" edge="1">
          <mxGeometry relative="1" as="geometry">
            <mxPoint x="380" y="270" as="sourcePoint" />
            <mxPoint x="540" y="270" as="targetPoint" />
          </mxGeometry>
        </mxCell>
        <mxCell id="XAqeLbuuqDxMd4Kl4Otn-58" value="&lt;div&gt;Pertenece&lt;/div&gt;" style="shape=rhombus;perimeter=rhombusPerimeter;whiteSpace=wrap;html=1;align=center;fillColor=#fff2cc;strokeColor=#d6b656;" parent="1" vertex="1">
          <mxGeometry x="560" y="130" width="70" height="60" as="geometry" />
        </mxCell>
        <mxCell id="XAqeLbuuqDxMd4Kl4Otn-59" value="" style="endArrow=none;html=1;rounded=0;exitX=1;exitY=0.5;exitDx=0;exitDy=0;entryX=0.5;entryY=0;entryDx=0;entryDy=0;" parent="1" source="XAqeLbuuqDxMd4Kl4Otn-6" target="XAqeLbuuqDxMd4Kl4Otn-58" edge="1">
          <mxGeometry relative="1" as="geometry">
            <mxPoint x="380" y="270" as="sourcePoint" />
            <mxPoint x="540" y="270" as="targetPoint" />
            <Array as="points">
              <mxPoint x="595" y="85" />
            </Array>
          </mxGeometry>
        </mxCell>
        <mxCell id="XAqeLbuuqDxMd4Kl4Otn-60" value="1" style="resizable=0;html=1;whiteSpace=wrap;align=right;verticalAlign=bottom;" parent="XAqeLbuuqDxMd4Kl4Otn-59" connectable="0" vertex="1">
          <mxGeometry x="1" relative="1" as="geometry">
            <mxPoint x="-5" as="offset" />
          </mxGeometry>
        </mxCell>
        <mxCell id="XAqeLbuuqDxMd4Kl4Otn-61" value="" style="shape=link;html=1;rounded=0;exitX=1;exitY=0.5;exitDx=0;exitDy=0;entryX=0.5;entryY=1;entryDx=0;entryDy=0;" parent="1" source="XAqeLbuuqDxMd4Kl4Otn-7" target="XAqeLbuuqDxMd4Kl4Otn-58" edge="1">
          <mxGeometry relative="1" as="geometry">
            <mxPoint x="380" y="270" as="sourcePoint" />
            <mxPoint x="540" y="270" as="targetPoint" />
            <Array as="points">
              <mxPoint x="595" y="225" />
            </Array>
          </mxGeometry>
        </mxCell>
        <mxCell id="XAqeLbuuqDxMd4Kl4Otn-62" value="N" style="resizable=0;html=1;whiteSpace=wrap;align=right;verticalAlign=bottom;" parent="XAqeLbuuqDxMd4Kl4Otn-61" connectable="0" vertex="1">
          <mxGeometry x="1" relative="1" as="geometry">
            <mxPoint x="-5" y="10" as="offset" />
          </mxGeometry>
        </mxCell>
        <mxCell id="XAqeLbuuqDxMd4Kl4Otn-65" value="Id Instrumento" style="ellipse;whiteSpace=wrap;html=1;align=center;fontStyle=4;fillColor=#dae8fc;strokeColor=#6c8ebf;" parent="1" vertex="1">
          <mxGeometry x="580" y="260" width="90" height="30" as="geometry" />
        </mxCell>
        <mxCell id="XAqeLbuuqDxMd4Kl4Otn-66" value="" style="endArrow=none;html=1;rounded=0;exitX=1;exitY=1;exitDx=0;exitDy=0;entryX=0;entryY=0.5;entryDx=0;entryDy=0;" parent="1" source="XAqeLbuuqDxMd4Kl4Otn-7" target="XAqeLbuuqDxMd4Kl4Otn-65" edge="1">
          <mxGeometry relative="1" as="geometry">
            <mxPoint x="380" y="270" as="sourcePoint" />
            <mxPoint x="540" y="270" as="targetPoint" />
          </mxGeometry>
        </mxCell>
        <mxCell id="XAqeLbuuqDxMd4Kl4Otn-67" value="Fecha adq." style="ellipse;whiteSpace=wrap;html=1;align=center;fillColor=#dae8fc;strokeColor=#6c8ebf;" parent="1" vertex="1">
          <mxGeometry x="490" y="285" width="80" height="30" as="geometry" />
        </mxCell>
        <mxCell id="XAqeLbuuqDxMd4Kl4Otn-68" value="Estado" style="ellipse;whiteSpace=wrap;html=1;align=center;fillColor=#dae8fc;strokeColor=#6c8ebf;" parent="1" vertex="1">
          <mxGeometry x="455" y="250" width="80" height="30" as="geometry" />
        </mxCell>
        <mxCell id="XAqeLbuuqDxMd4Kl4Otn-69" value="" style="endArrow=none;html=1;rounded=0;exitX=0.5;exitY=0;exitDx=0;exitDy=0;entryX=0.25;entryY=1;entryDx=0;entryDy=0;" parent="1" source="XAqeLbuuqDxMd4Kl4Otn-68" target="XAqeLbuuqDxMd4Kl4Otn-7" edge="1">
          <mxGeometry relative="1" as="geometry">
            <mxPoint x="380" y="270" as="sourcePoint" />
            <mxPoint x="540" y="270" as="targetPoint" />
          </mxGeometry>
        </mxCell>
        <mxCell id="XAqeLbuuqDxMd4Kl4Otn-70" value="" style="endArrow=none;html=1;rounded=0;exitX=0.5;exitY=1;exitDx=0;exitDy=0;entryX=1;entryY=0;entryDx=0;entryDy=0;" parent="1" source="XAqeLbuuqDxMd4Kl4Otn-7" target="XAqeLbuuqDxMd4Kl4Otn-67" edge="1">
          <mxGeometry relative="1" as="geometry">
            <mxPoint x="380" y="270" as="sourcePoint" />
            <mxPoint x="540" y="270" as="targetPoint" />
          </mxGeometry>
        </mxCell>
        <mxCell id="XAqeLbuuqDxMd4Kl4Otn-73" value="Convocados" style="shape=rhombus;perimeter=rhombusPerimeter;whiteSpace=wrap;html=1;align=center;fillColor=#f8cecc;strokeColor=#b85450;" parent="1" vertex="1">
          <mxGeometry x="210" y="350" width="80" height="70" as="geometry" />
        </mxCell>
        <mxCell id="XAqeLbuuqDxMd4Kl4Otn-75" value="" style="endArrow=none;html=1;rounded=0;exitX=0.5;exitY=0;exitDx=0;exitDy=0;entryX=0;entryY=0.25;entryDx=0;entryDy=0;" parent="1" source="XAqeLbuuqDxMd4Kl4Otn-73" target="XAqeLbuuqDxMd4Kl4Otn-7" edge="1">
          <mxGeometry relative="1" as="geometry">
            <mxPoint x="360" y="270" as="sourcePoint" />
            <mxPoint x="520" y="270" as="targetPoint" />
            <Array as="points">
              <mxPoint x="250" y="218" />
            </Array>
          </mxGeometry>
        </mxCell>
        <mxCell id="XAqeLbuuqDxMd4Kl4Otn-76" value="M" style="resizable=0;html=1;whiteSpace=wrap;align=right;verticalAlign=bottom;" parent="XAqeLbuuqDxMd4Kl4Otn-75" connectable="0" vertex="1">
          <mxGeometry x="1" relative="1" as="geometry">
            <mxPoint x="-240" y="133" as="offset" />
          </mxGeometry>
        </mxCell>
        <mxCell id="XAqeLbuuqDxMd4Kl4Otn-82" value="" style="endArrow=none;html=1;rounded=0;exitX=0;exitY=0.5;exitDx=0;exitDy=0;entryX=1;entryY=0.5;entryDx=0;entryDy=0;" parent="1" source="XAqeLbuuqDxMd4Kl4Otn-8" target="XAqeLbuuqDxMd4Kl4Otn-73" edge="1">
          <mxGeometry relative="1" as="geometry">
            <mxPoint x="360" y="270" as="sourcePoint" />
            <mxPoint x="520" y="270" as="targetPoint" />
            <Array as="points">
              <mxPoint x="320" y="470" />
              <mxPoint x="320" y="385" />
            </Array>
          </mxGeometry>
        </mxCell>
        <mxCell id="XAqeLbuuqDxMd4Kl4Otn-83" value="M" style="resizable=0;html=1;whiteSpace=wrap;align=right;verticalAlign=bottom;" parent="XAqeLbuuqDxMd4Kl4Otn-82" connectable="0" vertex="1">
          <mxGeometry x="1" relative="1" as="geometry">
            <mxPoint x="10" as="offset" />
          </mxGeometry>
        </mxCell>
        <mxCell id="XAqeLbuuqDxMd4Kl4Otn-85" value="" style="shape=link;html=1;rounded=0;exitX=1;exitY=0.5;exitDx=0;exitDy=0;entryX=0.5;entryY=1;entryDx=0;entryDy=0;" parent="1" source="XAqeLbuuqDxMd4Kl4Otn-5" target="XAqeLbuuqDxMd4Kl4Otn-73" edge="1">
          <mxGeometry relative="1" as="geometry">
            <mxPoint x="360" y="270" as="sourcePoint" />
            <mxPoint x="520" y="270" as="targetPoint" />
            <Array as="points">
              <mxPoint x="250" y="445" />
            </Array>
          </mxGeometry>
        </mxCell>
        <mxCell id="XAqeLbuuqDxMd4Kl4Otn-86" value="N" style="resizable=0;html=1;whiteSpace=wrap;align=right;verticalAlign=bottom;" parent="XAqeLbuuqDxMd4Kl4Otn-85" connectable="0" vertex="1">
          <mxGeometry x="1" relative="1" as="geometry">
            <mxPoint x="-10" y="10" as="offset" />
          </mxGeometry>
        </mxCell>
        <mxCell id="XAqeLbuuqDxMd4Kl4Otn-88" value="&lt;div&gt;Están&lt;/div&gt;&lt;div&gt;Capacitados&lt;br&gt;&lt;/div&gt;" style="shape=rhombus;perimeter=rhombusPerimeter;whiteSpace=wrap;html=1;align=center;fillColor=#f8cecc;strokeColor=#b85450;" parent="1" vertex="1">
          <mxGeometry x="310" y="270" width="70" height="60" as="geometry" />
        </mxCell>
        <mxCell id="XAqeLbuuqDxMd4Kl4Otn-89" value="" style="shape=link;html=1;rounded=0;exitX=0;exitY=0.25;exitDx=0;exitDy=0;entryX=0.5;entryY=1;entryDx=0;entryDy=0;" parent="1" source="XAqeLbuuqDxMd4Kl4Otn-8" target="XAqeLbuuqDxMd4Kl4Otn-88" edge="1">
          <mxGeometry relative="1" as="geometry">
            <mxPoint x="360" y="270" as="sourcePoint" />
            <mxPoint x="520" y="270" as="targetPoint" />
            <Array as="points">
              <mxPoint x="345" y="463" />
            </Array>
          </mxGeometry>
        </mxCell>
        <mxCell id="XAqeLbuuqDxMd4Kl4Otn-90" value="N" style="resizable=0;html=1;whiteSpace=wrap;align=right;verticalAlign=bottom;" parent="XAqeLbuuqDxMd4Kl4Otn-89" connectable="0" vertex="1">
          <mxGeometry x="1" relative="1" as="geometry">
            <mxPoint y="15" as="offset" />
          </mxGeometry>
        </mxCell>
        <mxCell id="XAqeLbuuqDxMd4Kl4Otn-91" value="" style="endArrow=none;html=1;rounded=0;exitX=0.25;exitY=1;exitDx=0;exitDy=0;entryX=0.5;entryY=0;entryDx=0;entryDy=0;" parent="1" source="XAqeLbuuqDxMd4Kl4Otn-6" target="XAqeLbuuqDxMd4Kl4Otn-88" edge="1">
          <mxGeometry relative="1" as="geometry">
            <mxPoint x="360" y="270" as="sourcePoint" />
            <mxPoint x="520" y="270" as="targetPoint" />
            <Array as="points">
              <mxPoint x="463" y="200" />
              <mxPoint x="345" y="200" />
            </Array>
          </mxGeometry>
        </mxCell>
        <mxCell id="XAqeLbuuqDxMd4Kl4Otn-92" value="M" style="resizable=0;html=1;whiteSpace=wrap;align=right;verticalAlign=bottom;" parent="XAqeLbuuqDxMd4Kl4Otn-91" connectable="0" vertex="1">
          <mxGeometry x="1" relative="1" as="geometry" />
        </mxCell>
        <mxCell id="XAqeLbuuqDxMd4Kl4Otn-93" value="NIF" style="ellipse;whiteSpace=wrap;html=1;align=center;fontStyle=4;fillColor=#dae8fc;strokeColor=#6c8ebf;" parent="1" vertex="1">
          <mxGeometry x="380" y="485" width="85" height="30" as="geometry" />
        </mxCell>
        <mxCell id="XAqeLbuuqDxMd4Kl4Otn-94" value="" style="endArrow=none;html=1;rounded=0;exitX=1;exitY=0;exitDx=0;exitDy=0;entryX=0;entryY=1;entryDx=0;entryDy=0;" parent="1" source="XAqeLbuuqDxMd4Kl4Otn-93" target="XAqeLbuuqDxMd4Kl4Otn-8" edge="1">
          <mxGeometry relative="1" as="geometry">
            <mxPoint x="360" y="315" as="sourcePoint" />
            <mxPoint x="520" y="315" as="targetPoint" />
          </mxGeometry>
        </mxCell>
        <mxCell id="XAqeLbuuqDxMd4Kl4Otn-95" value="Nombre" style="ellipse;whiteSpace=wrap;html=1;align=center;fillStyle=auto;fillColor=#dae8fc;strokeColor=#6c8ebf;shadow=0;" parent="1" vertex="1">
          <mxGeometry x="655" y="475" width="80" height="35" as="geometry" />
        </mxCell>
        <mxCell id="XAqeLbuuqDxMd4Kl4Otn-96" value="" style="endArrow=none;html=1;rounded=0;exitX=1;exitY=0.75;exitDx=0;exitDy=0;entryX=0;entryY=0.5;entryDx=0;entryDy=0;" parent="1" source="XAqeLbuuqDxMd4Kl4Otn-8" target="XAqeLbuuqDxMd4Kl4Otn-95" edge="1">
          <mxGeometry relative="1" as="geometry">
            <mxPoint x="360" y="315" as="sourcePoint" />
            <mxPoint x="520" y="315" as="targetPoint" />
          </mxGeometry>
        </mxCell>
        <mxCell id="XAqeLbuuqDxMd4Kl4Otn-97" value="Apellido2" style="ellipse;whiteSpace=wrap;html=1;align=center;fillColor=#dae8fc;strokeColor=#6c8ebf;" parent="1" vertex="1">
          <mxGeometry x="745" y="500" width="80" height="35" as="geometry" />
        </mxCell>
        <mxCell id="XAqeLbuuqDxMd4Kl4Otn-98" value="Apellido1" style="ellipse;whiteSpace=wrap;html=1;align=center;fillColor=#dae8fc;strokeColor=#6c8ebf;" parent="1" vertex="1">
          <mxGeometry x="742.5" y="460" width="80" height="35" as="geometry" />
        </mxCell>
        <mxCell id="XAqeLbuuqDxMd4Kl4Otn-99" value="N. Pila" style="ellipse;whiteSpace=wrap;html=1;align=center;fillColor=#dae8fc;strokeColor=#6c8ebf;" parent="1" vertex="1">
          <mxGeometry x="745" y="415" width="80" height="35" as="geometry" />
        </mxCell>
        <mxCell id="XAqeLbuuqDxMd4Kl4Otn-101" value="" style="endArrow=none;html=1;rounded=0;exitX=1;exitY=0.5;exitDx=0;exitDy=0;entryX=0;entryY=0.5;entryDx=0;entryDy=0;" parent="1" source="XAqeLbuuqDxMd4Kl4Otn-95" target="XAqeLbuuqDxMd4Kl4Otn-99" edge="1">
          <mxGeometry relative="1" as="geometry">
            <mxPoint x="360" y="315" as="sourcePoint" />
            <mxPoint x="520" y="315" as="targetPoint" />
          </mxGeometry>
        </mxCell>
        <mxCell id="XAqeLbuuqDxMd4Kl4Otn-102" value="" style="endArrow=none;html=1;rounded=0;exitX=1;exitY=0.5;exitDx=0;exitDy=0;entryX=0;entryY=0.5;entryDx=0;entryDy=0;" parent="1" source="XAqeLbuuqDxMd4Kl4Otn-95" target="XAqeLbuuqDxMd4Kl4Otn-98" edge="1">
          <mxGeometry relative="1" as="geometry">
            <mxPoint x="710" y="480" as="sourcePoint" />
            <mxPoint x="730" y="438" as="targetPoint" />
          </mxGeometry>
        </mxCell>
        <mxCell id="XAqeLbuuqDxMd4Kl4Otn-103" value="" style="endArrow=none;html=1;rounded=0;exitX=1;exitY=0.5;exitDx=0;exitDy=0;entryX=0;entryY=0.5;entryDx=0;entryDy=0;" parent="1" source="XAqeLbuuqDxMd4Kl4Otn-95" target="XAqeLbuuqDxMd4Kl4Otn-97" edge="1">
          <mxGeometry relative="1" as="geometry">
            <mxPoint x="710" y="480" as="sourcePoint" />
            <mxPoint x="730" y="438" as="targetPoint" />
          </mxGeometry>
        </mxCell>
        <mxCell id="XAqeLbuuqDxMd4Kl4Otn-104" value="Disponibilidad" style="ellipse;whiteSpace=wrap;html=1;align=center;fillColor=#dae8fc;strokeColor=#6c8ebf;" parent="1" vertex="1">
          <mxGeometry x="470" y="500" width="90" height="35" as="geometry" />
        </mxCell>
        <mxCell id="XAqeLbuuqDxMd4Kl4Otn-107" value="Dirección" style="ellipse;whiteSpace=wrap;html=1;align=center;fillColor=#dae8fc;strokeColor=#6c8ebf;" parent="1" vertex="1">
          <mxGeometry x="580" y="500" width="90" height="30" as="geometry" />
        </mxCell>
        <mxCell id="XAqeLbuuqDxMd4Kl4Otn-108" value="" style="endArrow=none;html=1;rounded=0;exitX=0.5;exitY=1;exitDx=0;exitDy=0;entryX=0.5;entryY=0;entryDx=0;entryDy=0;" parent="1" source="XAqeLbuuqDxMd4Kl4Otn-8" target="XAqeLbuuqDxMd4Kl4Otn-107" edge="1">
          <mxGeometry relative="1" as="geometry">
            <mxPoint x="360" y="315" as="sourcePoint" />
            <mxPoint x="520" y="315" as="targetPoint" />
          </mxGeometry>
        </mxCell>
        <mxCell id="XAqeLbuuqDxMd4Kl4Otn-109" value="Localidad" style="ellipse;whiteSpace=wrap;html=1;align=center;fillColor=#dae8fc;strokeColor=#6c8ebf;" parent="1" vertex="1">
          <mxGeometry x="710" y="545" width="80" height="35" as="geometry" />
        </mxCell>
        <mxCell id="XAqeLbuuqDxMd4Kl4Otn-110" value="CP" style="ellipse;whiteSpace=wrap;html=1;align=center;fillColor=#dae8fc;strokeColor=#6c8ebf;" parent="1" vertex="1">
          <mxGeometry x="625" y="545" width="80" height="35" as="geometry" />
        </mxCell>
        <mxCell id="XAqeLbuuqDxMd4Kl4Otn-111" value="Calle" style="ellipse;whiteSpace=wrap;html=1;align=center;fillColor=#dae8fc;strokeColor=#6c8ebf;" parent="1" vertex="1">
          <mxGeometry x="540" y="530" width="80" height="35" as="geometry" />
        </mxCell>
        <mxCell id="XAqeLbuuqDxMd4Kl4Otn-112" value="" style="endArrow=none;html=1;rounded=0;exitX=1;exitY=1;exitDx=0;exitDy=0;entryX=0;entryY=0;entryDx=0;entryDy=0;" parent="1" source="XAqeLbuuqDxMd4Kl4Otn-107" target="XAqeLbuuqDxMd4Kl4Otn-109" edge="1">
          <mxGeometry relative="1" as="geometry">
            <mxPoint x="430" y="315" as="sourcePoint" />
            <mxPoint x="590" y="315" as="targetPoint" />
          </mxGeometry>
        </mxCell>
        <mxCell id="XAqeLbuuqDxMd4Kl4Otn-113" value="" style="endArrow=none;html=1;rounded=0;exitX=0.702;exitY=0.944;exitDx=0;exitDy=0;entryX=0.5;entryY=0;entryDx=0;entryDy=0;exitPerimeter=0;" parent="1" source="XAqeLbuuqDxMd4Kl4Otn-107" target="XAqeLbuuqDxMd4Kl4Otn-110" edge="1">
          <mxGeometry relative="1" as="geometry">
            <mxPoint x="667" y="536" as="sourcePoint" />
            <mxPoint x="732" y="560" as="targetPoint" />
          </mxGeometry>
        </mxCell>
        <mxCell id="XAqeLbuuqDxMd4Kl4Otn-114" value="" style="endArrow=none;html=1;rounded=0;exitX=0.406;exitY=1;exitDx=0;exitDy=0;entryX=1;entryY=0;entryDx=0;entryDy=0;exitPerimeter=0;" parent="1" source="XAqeLbuuqDxMd4Kl4Otn-107" target="XAqeLbuuqDxMd4Kl4Otn-111" edge="1">
          <mxGeometry relative="1" as="geometry">
            <mxPoint x="653" y="538" as="sourcePoint" />
            <mxPoint x="613.2842712474699" y="540.1256313292322" as="targetPoint" />
          </mxGeometry>
        </mxCell>
        <mxCell id="XAqeLbuuqDxMd4Kl4Otn-117" value="" style="endArrow=none;html=1;rounded=0;exitX=0.25;exitY=1;exitDx=0;exitDy=0;entryX=0.5;entryY=0;entryDx=0;entryDy=0;" parent="1" source="XAqeLbuuqDxMd4Kl4Otn-8" target="XAqeLbuuqDxMd4Kl4Otn-104" edge="1">
          <mxGeometry relative="1" as="geometry">
            <mxPoint x="360" y="290" as="sourcePoint" />
            <mxPoint x="520" y="290" as="targetPoint" />
          </mxGeometry>
        </mxCell>
        <mxCell id="XAqeLbuuqDxMd4Kl4Otn-118" value="Asignado" style="shape=rhombus;double=1;perimeter=rhombusPerimeter;whiteSpace=wrap;html=1;align=center;fillColor=#fff2cc;strokeColor=#d6b656;" parent="1" vertex="1">
          <mxGeometry x="390" y="250" width="70" height="60" as="geometry" />
        </mxCell>
        <mxCell id="XAqeLbuuqDxMd4Kl4Otn-119" value="Tiene&lt;br&gt;prestado" style="shape=rhombus;perimeter=rhombusPerimeter;whiteSpace=wrap;html=1;align=center;fillColor=#fff2cc;strokeColor=#d6b656;" parent="1" vertex="1">
          <mxGeometry x="580" y="370" width="75" height="60" as="geometry" />
        </mxCell>
        <mxCell id="XAqeLbuuqDxMd4Kl4Otn-120" value="" style="endArrow=none;html=1;rounded=0;exitX=0;exitY=0.75;exitDx=0;exitDy=0;entryX=0.5;entryY=0;entryDx=0;entryDy=0;" parent="1" source="XAqeLbuuqDxMd4Kl4Otn-7" target="XAqeLbuuqDxMd4Kl4Otn-118" edge="1">
          <mxGeometry relative="1" as="geometry">
            <mxPoint x="360" y="290" as="sourcePoint" />
            <mxPoint x="520" y="290" as="targetPoint" />
            <Array as="points">
              <mxPoint x="425" y="233" />
            </Array>
          </mxGeometry>
        </mxCell>
        <mxCell id="XAqeLbuuqDxMd4Kl4Otn-121" value="N" style="resizable=0;html=1;whiteSpace=wrap;align=right;verticalAlign=bottom;" parent="XAqeLbuuqDxMd4Kl4Otn-120" connectable="0" vertex="1">
          <mxGeometry x="1" relative="1" as="geometry" />
        </mxCell>
        <mxCell id="XAqeLbuuqDxMd4Kl4Otn-122" value="" style="shape=link;html=1;rounded=0;exitX=0;exitY=0.5;exitDx=0;exitDy=0;entryX=0.5;entryY=1;entryDx=0;entryDy=0;" parent="1" source="XAqeLbuuqDxMd4Kl4Otn-10" target="XAqeLbuuqDxMd4Kl4Otn-118" edge="1">
          <mxGeometry relative="1" as="geometry">
            <mxPoint x="360" y="290" as="sourcePoint" />
            <mxPoint x="520" y="290" as="targetPoint" />
            <Array as="points">
              <mxPoint x="425" y="340" />
            </Array>
          </mxGeometry>
        </mxCell>
        <mxCell id="XAqeLbuuqDxMd4Kl4Otn-123" value="1" style="resizable=0;html=1;whiteSpace=wrap;align=right;verticalAlign=bottom;" parent="XAqeLbuuqDxMd4Kl4Otn-122" connectable="0" vertex="1">
          <mxGeometry x="1" relative="1" as="geometry">
            <mxPoint x="-2" y="20" as="offset" />
          </mxGeometry>
        </mxCell>
        <mxCell id="XAqeLbuuqDxMd4Kl4Otn-124" value="" style="endArrow=none;html=1;rounded=0;exitX=1;exitY=0.25;exitDx=0;exitDy=0;entryX=0.5;entryY=1;entryDx=0;entryDy=0;" parent="1" source="XAqeLbuuqDxMd4Kl4Otn-8" target="XAqeLbuuqDxMd4Kl4Otn-119" edge="1">
          <mxGeometry relative="1" as="geometry">
            <mxPoint x="360" y="290" as="sourcePoint" />
            <mxPoint x="520" y="290" as="targetPoint" />
            <Array as="points">
              <mxPoint x="618" y="463" />
            </Array>
          </mxGeometry>
        </mxCell>
        <mxCell id="XAqeLbuuqDxMd4Kl4Otn-125" value="1" style="resizable=0;html=1;whiteSpace=wrap;align=right;verticalAlign=bottom;" parent="XAqeLbuuqDxMd4Kl4Otn-124" connectable="0" vertex="1">
          <mxGeometry x="1" relative="1" as="geometry">
            <mxPoint y="15" as="offset" />
          </mxGeometry>
        </mxCell>
        <mxCell id="XAqeLbuuqDxMd4Kl4Otn-126" value="" style="shape=link;html=1;rounded=0;exitX=1;exitY=0.5;exitDx=0;exitDy=0;entryX=0.5;entryY=0;entryDx=0;entryDy=0;" parent="1" source="XAqeLbuuqDxMd4Kl4Otn-10" target="XAqeLbuuqDxMd4Kl4Otn-119" edge="1">
          <mxGeometry relative="1" as="geometry">
            <mxPoint x="360" y="290" as="sourcePoint" />
            <mxPoint x="520" y="290" as="targetPoint" />
            <Array as="points">
              <mxPoint x="618" y="340" />
            </Array>
          </mxGeometry>
        </mxCell>
        <mxCell id="XAqeLbuuqDxMd4Kl4Otn-127" value="N" style="resizable=0;html=1;whiteSpace=wrap;align=right;verticalAlign=bottom;" parent="XAqeLbuuqDxMd4Kl4Otn-126" connectable="0" vertex="1">
          <mxGeometry x="1" relative="1" as="geometry">
            <mxPoint x="-7" as="offset" />
          </mxGeometry>
        </mxCell>
        <mxCell id="XAqeLbuuqDxMd4Kl4Otn-131" value="&lt;span style=&quot;border-bottom: 1px dotted&quot;&gt;Fecha Inicio&lt;br&gt;&lt;/span&gt;" style="ellipse;whiteSpace=wrap;html=1;align=center;fillColor=#d5e8d4;strokeColor=#82b366;" parent="1" vertex="1">
          <mxGeometry x="360" y="370" width="90" height="30" as="geometry" />
        </mxCell>
        <mxCell id="XAqeLbuuqDxMd4Kl4Otn-134" value="" style="endArrow=none;html=1;rounded=0;exitX=0.5;exitY=0;exitDx=0;exitDy=0;entryX=0.25;entryY=1;entryDx=0;entryDy=0;" parent="1" source="XAqeLbuuqDxMd4Kl4Otn-131" target="XAqeLbuuqDxMd4Kl4Otn-10" edge="1">
          <mxGeometry relative="1" as="geometry">
            <mxPoint x="360" y="290" as="sourcePoint" />
            <mxPoint x="520" y="290" as="targetPoint" />
          </mxGeometry>
        </mxCell>
        <mxCell id="XAqeLbuuqDxMd4Kl4Otn-135" value="Fecha Fin" style="ellipse;whiteSpace=wrap;html=1;align=center;fillColor=#d5e8d4;strokeColor=#82b366;" parent="1" vertex="1">
          <mxGeometry x="490" y="380" width="80" height="30" as="geometry" />
        </mxCell>
        <mxCell id="XAqeLbuuqDxMd4Kl4Otn-136" value="" style="endArrow=none;html=1;rounded=0;exitX=0.5;exitY=0;exitDx=0;exitDy=0;entryX=0.5;entryY=1;entryDx=0;entryDy=0;" parent="1" source="XAqeLbuuqDxMd4Kl4Otn-135" target="XAqeLbuuqDxMd4Kl4Otn-10" edge="1">
          <mxGeometry relative="1" as="geometry">
            <mxPoint x="360" y="290" as="sourcePoint" />
            <mxPoint x="520" y="290" as="targetPoint" />
          </mxGeometry>
        </mxCell>
        <mxCell id="XAqeLbuuqDxMd4Kl4Otn-137" value="Orden" style="ellipse;whiteSpace=wrap;html=1;align=center;fillColor=#f8cecc;strokeColor=#b85450;" parent="1" vertex="1">
          <mxGeometry x="30" y="250" width="80" height="30" as="geometry" />
        </mxCell>
        <mxCell id="XAqeLbuuqDxMd4Kl4Otn-138" value="" style="endArrow=none;html=1;rounded=0;exitX=0;exitY=0.5;exitDx=0;exitDy=0;entryX=0.5;entryY=1;entryDx=0;entryDy=0;" parent="1" source="XAqeLbuuqDxMd4Kl4Otn-33" target="XAqeLbuuqDxMd4Kl4Otn-137" edge="1">
          <mxGeometry relative="1" as="geometry">
            <mxPoint x="360" y="290" as="sourcePoint" />
            <mxPoint x="520" y="290" as="targetPoint" />
          </mxGeometry>
        </mxCell>
        <mxCell id="p1lBdA_Sl0orCAoJKxw7-15" value="" style="rounded=0;whiteSpace=wrap;html=1;" parent="1" vertex="1">
          <mxGeometry x="15" y="620" width="395" height="40" as="geometry" />
        </mxCell>
        <mxCell id="p1lBdA_Sl0orCAoJKxw7-17" value="&lt;h1&gt;&lt;font style=&quot;font-size: 15px;&quot;&gt;Obras:&lt;/font&gt;&lt;/h1&gt;" style="text;html=1;strokeColor=#6c8ebf;fillColor=#dae8fc;spacing=5;spacingTop=-20;whiteSpace=wrap;overflow=hidden;rounded=0;" parent="1" vertex="1">
          <mxGeometry x="15" y="620" width="65" height="40" as="geometry" />
        </mxCell>
        <mxCell id="za0L7de45CTUgm3J9eNV-1" value="&lt;h1&gt;&lt;span style=&quot;font-weight: normal;&quot;&gt;&lt;font style=&quot;font-size: 15px;&quot;&gt;Título&lt;/font&gt;&lt;/span&gt;&lt;/h1&gt;" style="text;html=1;strokeColor=#6c8ebf;fillColor=#dae8fc;spacing=5;spacingTop=-20;whiteSpace=wrap;overflow=hidden;rounded=0;align=left;" parent="1" vertex="1">
          <mxGeometry x="140" y="620" width="60" height="40" as="geometry" />
        </mxCell>
        <mxCell id="za0L7de45CTUgm3J9eNV-3" value="&lt;h1&gt;&lt;span style=&quot;font-weight: normal;&quot;&gt;&lt;font style=&quot;font-size: 15px;&quot;&gt;&lt;u&gt;Id Obra&lt;/u&gt;&lt;/font&gt;&lt;/span&gt;&lt;/h1&gt;" style="text;html=1;strokeColor=#6c8ebf;fillColor=#dae8fc;spacing=5;spacingTop=-20;whiteSpace=wrap;overflow=hidden;rounded=0;align=left;" parent="1" vertex="1">
          <mxGeometry x="80" y="620" width="60" height="40" as="geometry" />
        </mxCell>
        <mxCell id="za0L7de45CTUgm3J9eNV-4" value="&lt;h1&gt;&lt;span style=&quot;font-weight: normal;&quot;&gt;&lt;font style=&quot;font-size: 15px;&quot;&gt;Época&lt;/font&gt;&lt;/span&gt;&lt;/h1&gt;" style="text;html=1;strokeColor=#6c8ebf;fillColor=#dae8fc;spacing=5;spacingTop=-20;whiteSpace=wrap;overflow=hidden;rounded=0;align=left;" parent="1" vertex="1">
          <mxGeometry x="200" y="620" width="60" height="40" as="geometry" />
        </mxCell>
        <mxCell id="za0L7de45CTUgm3J9eNV-7" value="&lt;h1&gt;&lt;span style=&quot;font-weight: normal;&quot;&gt;&lt;font style=&quot;font-size: 15px;&quot;&gt;Género&lt;/font&gt;&lt;/span&gt;&lt;/h1&gt;" style="text;html=1;strokeColor=#6c8ebf;fillColor=#dae8fc;spacing=5;spacingTop=-20;whiteSpace=wrap;overflow=hidden;rounded=0;align=left;" parent="1" vertex="1">
          <mxGeometry x="255" y="620" width="60" height="40" as="geometry" />
        </mxCell>
        <mxCell id="za0L7de45CTUgm3J9eNV-8" value="" style="rounded=0;whiteSpace=wrap;html=1;" parent="1" vertex="1">
          <mxGeometry x="15" y="700" width="325" height="40" as="geometry" />
        </mxCell>
        <mxCell id="za0L7de45CTUgm3J9eNV-9" value="&lt;h1&gt;&lt;font style=&quot;font-size: 15px;&quot;&gt;Actuaciones:&lt;/font&gt;&lt;/h1&gt;" style="text;html=1;strokeColor=#6c8ebf;fillColor=#dae8fc;spacing=5;spacingTop=-20;whiteSpace=wrap;overflow=hidden;rounded=0;" parent="1" vertex="1">
          <mxGeometry x="15" y="700" width="105" height="40" as="geometry" />
        </mxCell>
        <mxCell id="za0L7de45CTUgm3J9eNV-10" value="&lt;h1&gt;&lt;span style=&quot;font-weight: normal;&quot;&gt;&lt;font style=&quot;font-size: 15px;&quot;&gt;Fecha&lt;/font&gt;&lt;/span&gt;&lt;/h1&gt;" style="text;html=1;strokeColor=#6c8ebf;fillColor=#dae8fc;spacing=5;spacingTop=-20;whiteSpace=wrap;overflow=hidden;rounded=0;align=left;" parent="1" vertex="1">
          <mxGeometry x="220" y="700" width="60" height="40" as="geometry" />
        </mxCell>
        <mxCell id="za0L7de45CTUgm3J9eNV-11" value="&lt;h1&gt;&lt;span style=&quot;font-weight: normal;&quot;&gt;&lt;font style=&quot;font-size: 15px;&quot;&gt;&lt;u&gt;Id Actuación&lt;/u&gt;&lt;/font&gt;&lt;/span&gt;&lt;/h1&gt;" style="text;html=1;strokeColor=#6c8ebf;fillColor=#dae8fc;spacing=5;spacingTop=-20;whiteSpace=wrap;overflow=hidden;rounded=0;align=left;" parent="1" vertex="1">
          <mxGeometry x="120" y="700" width="100" height="40" as="geometry" />
        </mxCell>
        <mxCell id="za0L7de45CTUgm3J9eNV-12" value="&lt;h1&gt;&lt;span style=&quot;font-weight: normal;&quot;&gt;&lt;font style=&quot;font-size: 15px;&quot;&gt;Recinto&lt;/font&gt;&lt;/span&gt;&lt;/h1&gt;" style="text;html=1;strokeColor=#6c8ebf;fillColor=#dae8fc;spacing=5;spacingTop=-20;whiteSpace=wrap;overflow=hidden;rounded=0;align=left;" parent="1" vertex="1">
          <mxGeometry x="280" y="700" width="60" height="40" as="geometry" />
        </mxCell>
        <mxCell id="za0L7de45CTUgm3J9eNV-14" value="" style="rounded=0;whiteSpace=wrap;html=1;" parent="1" vertex="1">
          <mxGeometry x="15" y="820" width="595" height="40" as="geometry" />
        </mxCell>
        <mxCell id="za0L7de45CTUgm3J9eNV-15" value="&lt;h1&gt;&lt;font style=&quot;font-size: 15px;&quot;&gt;Músicos:&lt;/font&gt;&lt;/h1&gt;" style="text;html=1;strokeColor=#6c8ebf;fillColor=#dae8fc;spacing=5;spacingTop=-20;whiteSpace=wrap;overflow=hidden;rounded=0;" parent="1" vertex="1">
          <mxGeometry x="15" y="820" width="75" height="40" as="geometry" />
        </mxCell>
        <mxCell id="za0L7de45CTUgm3J9eNV-16" value="&lt;h1&gt;&lt;span style=&quot;font-weight: normal;&quot;&gt;&lt;font style=&quot;font-size: 15px;&quot;&gt;Disponibilidad&lt;/font&gt;&lt;/span&gt;&lt;/h1&gt;" style="text;html=1;strokeColor=#6c8ebf;fillColor=#dae8fc;spacing=5;spacingTop=-20;whiteSpace=wrap;overflow=hidden;rounded=0;align=left;" parent="1" vertex="1">
          <mxGeometry x="130" y="820" width="100" height="40" as="geometry" />
        </mxCell>
        <mxCell id="za0L7de45CTUgm3J9eNV-17" value="&lt;h1&gt;&lt;span style=&quot;font-weight: normal;&quot;&gt;&lt;font style=&quot;font-size: 15px;&quot;&gt;&lt;u&gt;NIF&lt;/u&gt;&lt;/font&gt;&lt;/span&gt;&lt;/h1&gt;" style="text;html=1;strokeColor=#6c8ebf;fillColor=#dae8fc;spacing=5;spacingTop=-20;whiteSpace=wrap;overflow=hidden;rounded=0;align=left;" parent="1" vertex="1">
          <mxGeometry x="90" y="820" width="40" height="40" as="geometry" />
        </mxCell>
        <mxCell id="za0L7de45CTUgm3J9eNV-18" value="&lt;h1&gt;&lt;span style=&quot;font-weight: normal;&quot;&gt;&lt;font style=&quot;font-size: 15px;&quot;&gt;Calle&lt;/font&gt;&lt;/span&gt;&lt;/h1&gt;" style="text;html=1;strokeColor=#6c8ebf;fillColor=#dae8fc;spacing=5;spacingTop=-20;whiteSpace=wrap;overflow=hidden;rounded=0;align=left;" parent="1" vertex="1">
          <mxGeometry x="230" y="820" width="50" height="40" as="geometry" />
        </mxCell>
        <mxCell id="za0L7de45CTUgm3J9eNV-19" value="&lt;h1&gt;&lt;span style=&quot;font-weight: normal;&quot;&gt;&lt;font style=&quot;font-size: 15px;&quot;&gt;CP&lt;/font&gt;&lt;/span&gt;&lt;/h1&gt;" style="text;html=1;strokeColor=#6c8ebf;fillColor=#dae8fc;spacing=5;spacingTop=-20;whiteSpace=wrap;overflow=hidden;rounded=0;align=left;" parent="1" vertex="1">
          <mxGeometry x="280" y="820" width="50" height="40" as="geometry" />
        </mxCell>
        <mxCell id="za0L7de45CTUgm3J9eNV-20" value="&lt;h1&gt;&lt;span style=&quot;font-weight: normal;&quot;&gt;&lt;font style=&quot;font-size: 15px;&quot;&gt;Localidad&lt;/font&gt;&lt;/span&gt;&lt;/h1&gt;" style="text;html=1;strokeColor=#6c8ebf;fillColor=#dae8fc;spacing=5;spacingTop=-20;whiteSpace=wrap;overflow=hidden;rounded=0;align=left;" parent="1" vertex="1">
          <mxGeometry x="330" y="820" width="80" height="40" as="geometry" />
        </mxCell>
        <mxCell id="za0L7de45CTUgm3J9eNV-21" value="&lt;h1&gt;&lt;span style=&quot;font-weight: normal;&quot;&gt;&lt;font style=&quot;font-size: 15px;&quot;&gt;N.Pila&lt;/font&gt;&lt;/span&gt;&lt;/h1&gt;" style="text;html=1;strokeColor=#6c8ebf;fillColor=#dae8fc;spacing=5;spacingTop=-20;whiteSpace=wrap;overflow=hidden;rounded=0;align=left;" parent="1" vertex="1">
          <mxGeometry x="410" y="820" width="50" height="40" as="geometry" />
        </mxCell>
        <mxCell id="za0L7de45CTUgm3J9eNV-22" value="&lt;h1&gt;&lt;span style=&quot;font-weight: normal;&quot;&gt;&lt;font style=&quot;font-size: 15px;&quot;&gt;Apellido1&lt;/font&gt;&lt;/span&gt;&lt;/h1&gt;" style="text;html=1;strokeColor=#6c8ebf;fillColor=#dae8fc;spacing=5;spacingTop=-20;whiteSpace=wrap;overflow=hidden;rounded=0;align=left;" parent="1" vertex="1">
          <mxGeometry x="460" y="820" width="75" height="40" as="geometry" />
        </mxCell>
        <mxCell id="za0L7de45CTUgm3J9eNV-23" value="&lt;h1&gt;&lt;span style=&quot;font-weight: normal;&quot;&gt;&lt;font style=&quot;font-size: 15px;&quot;&gt;Apellido2&lt;/font&gt;&lt;/span&gt;&lt;/h1&gt;" style="text;html=1;strokeColor=#6c8ebf;fillColor=#dae8fc;spacing=5;spacingTop=-20;whiteSpace=wrap;overflow=hidden;rounded=0;align=left;" parent="1" vertex="1">
          <mxGeometry x="535" y="820" width="75" height="40" as="geometry" />
        </mxCell>
        <mxCell id="za0L7de45CTUgm3J9eNV-24" value="" style="rounded=0;whiteSpace=wrap;html=1;" parent="1" vertex="1">
          <mxGeometry x="25" y="910" width="465" height="40" as="geometry" />
        </mxCell>
        <mxCell id="za0L7de45CTUgm3J9eNV-25" value="&lt;h1&gt;&lt;font style=&quot;font-size: 15px;&quot;&gt;Instrumentos:&lt;/font&gt;&lt;/h1&gt;" style="text;html=1;strokeColor=#6c8ebf;fillColor=#dae8fc;spacing=5;spacingTop=-20;whiteSpace=wrap;overflow=hidden;rounded=0;" parent="1" vertex="1">
          <mxGeometry x="25" y="910" width="115" height="40" as="geometry" />
        </mxCell>
        <mxCell id="za0L7de45CTUgm3J9eNV-26" value="&lt;h1&gt;&lt;span style=&quot;font-weight: normal;&quot;&gt;&lt;font style=&quot;font-size: 15px;&quot;&gt;Estado&lt;/font&gt;&lt;/span&gt;&lt;/h1&gt;" style="text;html=1;strokeColor=#6c8ebf;fillColor=#dae8fc;spacing=5;spacingTop=-20;whiteSpace=wrap;overflow=hidden;rounded=0;align=left;" parent="1" vertex="1">
          <mxGeometry x="300" y="910" width="60" height="40" as="geometry" />
        </mxCell>
        <mxCell id="za0L7de45CTUgm3J9eNV-27" value="&lt;h1&gt;&lt;span style=&quot;font-weight: normal;&quot;&gt;&lt;font style=&quot;font-size: 15px;&quot;&gt;&lt;u&gt;Id Instrumento&lt;/u&gt;&lt;/font&gt;&lt;/span&gt;&lt;/h1&gt;" style="text;html=1;strokeColor=#6c8ebf;fillColor=#dae8fc;spacing=5;spacingTop=-20;whiteSpace=wrap;overflow=hidden;rounded=0;align=left;" parent="1" vertex="1">
          <mxGeometry x="135" y="910" width="110" height="40" as="geometry" />
        </mxCell>
        <mxCell id="za0L7de45CTUgm3J9eNV-28" value="&lt;h1&gt;&lt;span style=&quot;font-weight: normal;&quot;&gt;&lt;font style=&quot;font-size: 15px;&quot;&gt;Fecha adq.&lt;/font&gt;&lt;/span&gt;&lt;/h1&gt;" style="text;html=1;strokeColor=#6c8ebf;fillColor=#dae8fc;spacing=5;spacingTop=-20;whiteSpace=wrap;overflow=hidden;rounded=0;align=left;" parent="1" vertex="1">
          <mxGeometry x="400" y="910" width="90" height="40" as="geometry" />
        </mxCell>
        <mxCell id="za0L7de45CTUgm3J9eNV-29" value="Cantidad" style="ellipse;whiteSpace=wrap;html=1;align=center;fillColor=#dae8fc;strokeColor=#6c8ebf;" parent="1" vertex="1">
          <mxGeometry x="374" y="30" width="80" height="30" as="geometry" />
        </mxCell>
        <mxCell id="za0L7de45CTUgm3J9eNV-30" value="" style="rounded=0;whiteSpace=wrap;html=1;" parent="1" vertex="1">
          <mxGeometry x="25" y="1020" width="405" height="40" as="geometry" />
        </mxCell>
        <mxCell id="za0L7de45CTUgm3J9eNV-31" value="&lt;h1&gt;&lt;font style=&quot;font-size: 15px;&quot;&gt;Tipos de instrumento:&lt;/font&gt;&lt;/h1&gt;" style="text;html=1;strokeColor=#6c8ebf;fillColor=#dae8fc;spacing=5;spacingTop=-20;whiteSpace=wrap;overflow=hidden;rounded=0;" parent="1" vertex="1">
          <mxGeometry x="25" y="1020" width="175" height="40" as="geometry" />
        </mxCell>
        <mxCell id="za0L7de45CTUgm3J9eNV-32" value="&lt;h1&gt;&lt;span style=&quot;font-weight: normal;&quot;&gt;&lt;font style=&quot;font-size: 15px;&quot;&gt;Cantidad&lt;/font&gt;&lt;/span&gt;&lt;/h1&gt;" style="text;html=1;strokeColor=#6c8ebf;fillColor=#dae8fc;spacing=5;spacingTop=-20;whiteSpace=wrap;overflow=hidden;rounded=0;align=left;" parent="1" vertex="1">
          <mxGeometry x="360" y="1020" width="75" height="40" as="geometry" />
        </mxCell>
        <mxCell id="za0L7de45CTUgm3J9eNV-33" value="&lt;h1&gt;&lt;span style=&quot;font-weight: normal;&quot;&gt;&lt;font style=&quot;font-size: 15px;&quot;&gt;&lt;u&gt;Nombre&lt;/u&gt;&lt;/font&gt;&lt;/span&gt;&lt;/h1&gt;" style="text;html=1;strokeColor=#6c8ebf;fillColor=#dae8fc;spacing=5;spacingTop=-20;whiteSpace=wrap;overflow=hidden;rounded=0;align=left;" parent="1" vertex="1">
          <mxGeometry x="200" y="1020" width="80" height="40" as="geometry" />
        </mxCell>
        <mxCell id="za0L7de45CTUgm3J9eNV-34" value="&lt;h1&gt;&lt;span style=&quot;font-weight: normal;&quot;&gt;&lt;font style=&quot;font-size: 15px;&quot;&gt;Categoría&lt;/font&gt;&lt;/span&gt;&lt;/h1&gt;" style="text;html=1;strokeColor=#6c8ebf;fillColor=#dae8fc;spacing=5;spacingTop=-20;whiteSpace=wrap;overflow=hidden;rounded=0;align=left;" parent="1" vertex="1">
          <mxGeometry x="280" y="1020" width="80" height="40" as="geometry" />
        </mxCell>
        <mxCell id="za0L7de45CTUgm3J9eNV-35" value="" style="rounded=0;whiteSpace=wrap;html=1;" parent="1" vertex="1">
          <mxGeometry x="15" y="1110" width="485" height="40" as="geometry" />
        </mxCell>
        <mxCell id="za0L7de45CTUgm3J9eNV-36" value="&lt;h1&gt;&lt;font style=&quot;font-size: 15px;&quot;&gt;Historial de préstamos:&lt;/font&gt;&lt;/h1&gt;" style="text;html=1;strokeColor=#82b366;fillColor=#d5e8d4;spacing=5;spacingTop=-20;whiteSpace=wrap;overflow=hidden;rounded=0;" parent="1" vertex="1">
          <mxGeometry x="15" y="1110" width="175" height="40" as="geometry" />
        </mxCell>
        <mxCell id="za0L7de45CTUgm3J9eNV-38" value="&lt;h1&gt;&lt;span style=&quot;font-weight: normal;&quot;&gt;&lt;font style=&quot;font-size: 15px;&quot;&gt;&lt;u&gt;NIF&lt;/u&gt;&lt;/font&gt;&lt;/span&gt;&lt;/h1&gt;" style="text;html=1;strokeColor=#d6b656;fillColor=#fff2cc;spacing=5;spacingTop=-20;whiteSpace=wrap;overflow=hidden;rounded=0;align=left;" parent="1" vertex="1">
          <mxGeometry x="190" y="1110" width="40" height="40" as="geometry" />
        </mxCell>
        <mxCell id="za0L7de45CTUgm3J9eNV-39" value="&lt;h1&gt;&lt;span style=&quot;font-size: 15px; font-weight: 400;&quot;&gt;&lt;u&gt;Fecha Inicio&lt;/u&gt;&lt;/span&gt;&lt;/h1&gt;" style="text;html=1;strokeColor=#82b366;fillColor=#d5e8d4;spacing=5;spacingTop=-20;whiteSpace=wrap;overflow=hidden;rounded=0;align=left;" parent="1" vertex="1">
          <mxGeometry x="225" y="1110" width="90" height="40" as="geometry" />
        </mxCell>
        <mxCell id="za0L7de45CTUgm3J9eNV-41" value="&lt;h1&gt;&lt;span style=&quot;font-weight: normal;&quot;&gt;&lt;font style=&quot;font-size: 15px;&quot;&gt;Fecha Fin&lt;/font&gt;&lt;/span&gt;&lt;/h1&gt;" style="text;html=1;strokeColor=#82b366;fillColor=#d5e8d4;spacing=5;spacingTop=-20;whiteSpace=wrap;overflow=hidden;rounded=0;align=left;" parent="1" vertex="1">
          <mxGeometry x="315" y="1110" width="75" height="40" as="geometry" />
        </mxCell>
        <mxCell id="za0L7de45CTUgm3J9eNV-42" value="" style="endArrow=classic;html=1;rounded=0;exitX=0.25;exitY=0;exitDx=0;exitDy=0;fillColor=#fff2cc;strokeColor=#d6b656;entryX=0.25;entryY=1;entryDx=0;entryDy=0;" parent="1" source="za0L7de45CTUgm3J9eNV-38" target="za0L7de45CTUgm3J9eNV-17" edge="1">
          <mxGeometry width="50" height="50" relative="1" as="geometry">
            <mxPoint x="270" y="1000" as="sourcePoint" />
            <mxPoint x="100" y="880" as="targetPoint" />
            <Array as="points">
              <mxPoint x="200" y="1090" />
              <mxPoint x="20" y="1090" />
              <mxPoint x="20" y="880" />
              <mxPoint x="100" y="880" />
            </Array>
          </mxGeometry>
        </mxCell>
        <mxCell id="za0L7de45CTUgm3J9eNV-43" value="" style="endArrow=classic;html=1;rounded=0;exitX=0.5;exitY=0;exitDx=0;exitDy=0;entryX=0.5;entryY=0;entryDx=0;entryDy=0;fillColor=#fff2cc;strokeColor=#d6b656;" parent="1" source="za0L7de45CTUgm3J9eNV-44" target="za0L7de45CTUgm3J9eNV-3" edge="1">
          <mxGeometry width="50" height="50" relative="1" as="geometry">
            <mxPoint x="480" y="750" as="sourcePoint" />
            <mxPoint x="610" y="760" as="targetPoint" />
            <Array as="points">
              <mxPoint x="363" y="610" />
              <mxPoint x="110" y="610" />
            </Array>
          </mxGeometry>
        </mxCell>
        <mxCell id="za0L7de45CTUgm3J9eNV-44" value="&lt;h1&gt;&lt;span style=&quot;font-weight: normal;&quot;&gt;&lt;font style=&quot;font-size: 15px;&quot;&gt;Obra antigua&lt;/font&gt;&lt;/span&gt;&lt;/h1&gt;" style="text;html=1;strokeColor=#d6b656;fillColor=#fff2cc;spacing=5;spacingTop=-20;whiteSpace=wrap;overflow=hidden;rounded=0;align=left;" parent="1" vertex="1">
          <mxGeometry x="315" y="620" width="95" height="40" as="geometry" />
        </mxCell>
        <mxCell id="za0L7de45CTUgm3J9eNV-45" value="&lt;h1&gt;&lt;span style=&quot;font-weight: normal;&quot;&gt;&lt;font style=&quot;font-size: 15px;&quot;&gt;Nombre&lt;/font&gt;&lt;/span&gt;&lt;/h1&gt;" style="text;html=1;strokeColor=#d6b656;fillColor=#fff2cc;spacing=5;spacingTop=-20;whiteSpace=wrap;overflow=hidden;rounded=0;align=left;" parent="1" vertex="1">
          <mxGeometry x="240" y="910" width="61" height="40" as="geometry" />
        </mxCell>
        <mxCell id="za0L7de45CTUgm3J9eNV-46" value="" style="endArrow=classic;html=1;rounded=0;entryX=0.25;entryY=0;entryDx=0;entryDy=0;fillColor=#fff2cc;strokeColor=#d6b656;entryPerimeter=0;" parent="1" target="za0L7de45CTUgm3J9eNV-33" edge="1">
          <mxGeometry width="50" height="50" relative="1" as="geometry">
            <mxPoint x="245" y="950" as="sourcePoint" />
            <mxPoint x="440" y="740" as="targetPoint" />
            <Array as="points">
              <mxPoint x="245" y="970" />
              <mxPoint x="220" y="970" />
            </Array>
          </mxGeometry>
        </mxCell>
        <mxCell id="za0L7de45CTUgm3J9eNV-48" value="&lt;h1&gt;&lt;span style=&quot;font-weight: normal;&quot;&gt;&lt;font style=&quot;font-size: 15px;&quot;&gt;Id Instrumento&lt;/font&gt;&lt;/span&gt;&lt;/h1&gt;" style="text;html=1;strokeColor=#d6b656;fillColor=#fff2cc;spacing=5;spacingTop=-20;whiteSpace=wrap;overflow=hidden;rounded=0;align=left;" parent="1" vertex="1">
          <mxGeometry x="390" y="1110" width="110" height="40" as="geometry" />
        </mxCell>
        <mxCell id="za0L7de45CTUgm3J9eNV-49" value="" style="endArrow=classic;html=1;rounded=0;exitX=0.455;exitY=0;exitDx=0;exitDy=0;entryX=0.373;entryY=-0.025;entryDx=0;entryDy=0;fillColor=#fff2cc;strokeColor=#d6b656;exitPerimeter=0;entryPerimeter=0;" parent="1" source="za0L7de45CTUgm3J9eNV-48" target="za0L7de45CTUgm3J9eNV-27" edge="1">
          <mxGeometry width="50" height="50" relative="1" as="geometry">
            <mxPoint x="390" y="690" as="sourcePoint" />
            <mxPoint x="170" y="840" as="targetPoint" />
            <Array as="points">
              <mxPoint x="440" y="970" />
              <mxPoint x="493" y="970" />
              <mxPoint x="493" y="890" />
              <mxPoint x="177" y="890" />
            </Array>
          </mxGeometry>
        </mxCell>
        <mxCell id="za0L7de45CTUgm3J9eNV-50" value="&lt;h1 style=&quot;font-size: 20px;&quot;&gt;&lt;font style=&quot;font-size: 13px;&quot;&gt;&lt;font color=&quot;#7ea6e0&quot;&gt;Entidades fuertes (+atributos)&lt;/font&gt;&lt;br&gt;&lt;font color=&quot;#67ab9f&quot;&gt;Entidades débiles (+atributos)&lt;/font&gt;&lt;br&gt;&lt;font color=&quot;#ffd966&quot;&gt;Relaciones 1:N (+atributos)&lt;/font&gt;&lt;br&gt;&lt;font color=&quot;#ea6b66&quot;&gt;Relaciones N:M (+atributos)&lt;/font&gt;&lt;/font&gt;&lt;/h1&gt;" style="text;html=1;strokeColor=none;fillColor=none;spacing=5;spacingTop=-20;whiteSpace=wrap;overflow=hidden;rounded=0;" parent="1" vertex="1">
          <mxGeometry x="630" y="70" width="197" height="120" as="geometry" />
        </mxCell>
        <mxCell id="za0L7de45CTUgm3J9eNV-55" value="" style="rounded=0;whiteSpace=wrap;html=1;" parent="1" vertex="1">
          <mxGeometry x="490" y="630" width="325" height="40" as="geometry" />
        </mxCell>
        <mxCell id="za0L7de45CTUgm3J9eNV-56" value="&lt;h1&gt;&lt;font style=&quot;font-size: 15px;&quot;&gt;Necesita:&lt;/font&gt;&lt;/h1&gt;" style="text;html=1;strokeColor=#b85450;fillColor=#f8cecc;spacing=5;spacingTop=-20;whiteSpace=wrap;overflow=hidden;rounded=0;" parent="1" vertex="1">
          <mxGeometry x="490" y="630" width="80" height="40" as="geometry" />
        </mxCell>
        <mxCell id="za0L7de45CTUgm3J9eNV-57" value="&lt;h1&gt;&lt;span style=&quot;font-weight: normal;&quot;&gt;&lt;font style=&quot;font-size: 15px;&quot;&gt;Número de tipos&lt;/font&gt;&lt;/span&gt;&lt;/h1&gt;" style="text;html=1;strokeColor=#b85450;fillColor=#f8cecc;spacing=5;spacingTop=-20;whiteSpace=wrap;overflow=hidden;rounded=0;align=left;" parent="1" vertex="1">
          <mxGeometry x="630" y="630" width="120" height="40" as="geometry" />
        </mxCell>
        <mxCell id="za0L7de45CTUgm3J9eNV-58" value="&lt;h1&gt;&lt;span style=&quot;font-size: 15px; font-weight: 400;&quot;&gt;Id Obra&lt;/span&gt;&lt;/h1&gt;" style="text;html=1;strokeColor=#6c8ebf;fillColor=#dae8fc;spacing=5;spacingTop=-20;whiteSpace=wrap;overflow=hidden;rounded=0;align=left;" parent="1" vertex="1">
          <mxGeometry x="570" y="630" width="60" height="40" as="geometry" />
        </mxCell>
        <mxCell id="za0L7de45CTUgm3J9eNV-59" value="&lt;h1&gt;&lt;span style=&quot;font-size: 15px; font-weight: 400;&quot;&gt;Nombre&lt;/span&gt;&lt;/h1&gt;" style="text;html=1;strokeColor=#6c8ebf;fillColor=#dae8fc;spacing=5;spacingTop=-20;whiteSpace=wrap;overflow=hidden;rounded=0;align=left;" parent="1" vertex="1">
          <mxGeometry x="750" y="630" width="65" height="40" as="geometry" />
        </mxCell>
        <mxCell id="za0L7de45CTUgm3J9eNV-60" value="" style="rounded=0;whiteSpace=wrap;html=1;" parent="1" vertex="1">
          <mxGeometry x="490" y="700" width="325" height="40" as="geometry" />
        </mxCell>
        <mxCell id="za0L7de45CTUgm3J9eNV-61" value="&lt;h1&gt;&lt;font style=&quot;font-size: 15px;&quot;&gt;Se interpreta:&lt;/font&gt;&lt;/h1&gt;" style="text;html=1;strokeColor=#b85450;fillColor=#f8cecc;spacing=5;spacingTop=-20;whiteSpace=wrap;overflow=hidden;rounded=0;" parent="1" vertex="1">
          <mxGeometry x="490" y="700" width="105" height="40" as="geometry" />
        </mxCell>
        <mxCell id="za0L7de45CTUgm3J9eNV-62" value="&lt;h1&gt;&lt;span style=&quot;font-weight: normal;&quot;&gt;&lt;font style=&quot;font-size: 15px;&quot;&gt;Id Obra&lt;/font&gt;&lt;/span&gt;&lt;/h1&gt;" style="text;html=1;strokeColor=#6c8ebf;fillColor=#dae8fc;spacing=5;spacingTop=-20;whiteSpace=wrap;overflow=hidden;rounded=0;align=left;" parent="1" vertex="1">
          <mxGeometry x="695" y="700" width="60" height="40" as="geometry" />
        </mxCell>
        <mxCell id="za0L7de45CTUgm3J9eNV-63" value="&lt;h1&gt;&lt;span style=&quot;font-weight: normal;&quot;&gt;&lt;font style=&quot;font-size: 15px;&quot;&gt;Id Actuación&lt;/font&gt;&lt;/span&gt;&lt;/h1&gt;" style="text;html=1;strokeColor=#6c8ebf;fillColor=#dae8fc;spacing=5;spacingTop=-20;whiteSpace=wrap;overflow=hidden;rounded=0;align=left;" parent="1" vertex="1">
          <mxGeometry x="595" y="700" width="100" height="40" as="geometry" />
        </mxCell>
        <mxCell id="za0L7de45CTUgm3J9eNV-64" value="&lt;h1&gt;&lt;span style=&quot;font-weight: normal;&quot;&gt;&lt;font style=&quot;font-size: 15px;&quot;&gt;Orden&lt;/font&gt;&lt;/span&gt;&lt;/h1&gt;" style="text;html=1;strokeColor=#b85450;fillColor=#f8cecc;spacing=5;spacingTop=-20;whiteSpace=wrap;overflow=hidden;rounded=0;align=left;" parent="1" vertex="1">
          <mxGeometry x="755" y="700" width="60" height="40" as="geometry" />
        </mxCell>
        <mxCell id="za0L7de45CTUgm3J9eNV-65" value="" style="endArrow=classic;html=1;rounded=0;exitX=0.5;exitY=0;exitDx=0;exitDy=0;entryX=0.25;entryY=0;entryDx=0;entryDy=0;fillColor=#f8cecc;strokeColor=#b85450;" parent="1" source="za0L7de45CTUgm3J9eNV-58" target="za0L7de45CTUgm3J9eNV-3" edge="1">
          <mxGeometry width="50" height="50" relative="1" as="geometry">
            <mxPoint x="390" y="490" as="sourcePoint" />
            <mxPoint x="440" y="440" as="targetPoint" />
            <Array as="points">
              <mxPoint x="600" y="600" />
              <mxPoint x="95" y="600" />
            </Array>
          </mxGeometry>
        </mxCell>
        <mxCell id="za0L7de45CTUgm3J9eNV-66" value="" style="endArrow=classic;html=1;rounded=0;fillColor=#f8cecc;strokeColor=#b85450;exitX=0.5;exitY=1;exitDx=0;exitDy=0;entryX=0.613;entryY=-0.025;entryDx=0;entryDy=0;entryPerimeter=0;" parent="1" source="za0L7de45CTUgm3J9eNV-59" target="za0L7de45CTUgm3J9eNV-33" edge="1">
          <mxGeometry width="50" height="50" relative="1" as="geometry">
            <mxPoint x="753" y="860" as="sourcePoint" />
            <mxPoint x="620" y="940" as="targetPoint" />
            <Array as="points">
              <mxPoint x="783" y="690" />
              <mxPoint x="470" y="690" />
              <mxPoint x="470" y="770" />
              <mxPoint x="620" y="770" />
              <mxPoint x="620" y="870" />
              <mxPoint x="510" y="870" />
              <mxPoint x="510" y="920" />
              <mxPoint x="510" y="990" />
              <mxPoint x="249" y="990" />
            </Array>
          </mxGeometry>
        </mxCell>
        <mxCell id="za0L7de45CTUgm3J9eNV-68" value="" style="endArrow=classic;html=1;rounded=0;exitX=0.5;exitY=1;exitDx=0;exitDy=0;entryX=0.5;entryY=1;entryDx=0;entryDy=0;fillColor=#f8cecc;strokeColor=#b85450;" parent="1" source="za0L7de45CTUgm3J9eNV-63" target="za0L7de45CTUgm3J9eNV-11" edge="1">
          <mxGeometry width="50" height="50" relative="1" as="geometry">
            <mxPoint x="390" y="560" as="sourcePoint" />
            <mxPoint x="440" y="510" as="targetPoint" />
            <Array as="points">
              <mxPoint x="645" y="750" />
              <mxPoint x="170" y="750" />
            </Array>
          </mxGeometry>
        </mxCell>
        <mxCell id="za0L7de45CTUgm3J9eNV-70" value="" style="endArrow=classic;html=1;rounded=0;exitX=0.5;exitY=0;exitDx=0;exitDy=0;entryX=0.5;entryY=1;entryDx=0;entryDy=0;fillColor=#f8cecc;strokeColor=#b85450;" parent="1" source="za0L7de45CTUgm3J9eNV-62" target="za0L7de45CTUgm3J9eNV-3" edge="1">
          <mxGeometry width="50" height="50" relative="1" as="geometry">
            <mxPoint x="390" y="560" as="sourcePoint" />
            <mxPoint x="440" y="510" as="targetPoint" />
            <Array as="points">
              <mxPoint x="725" y="680" />
              <mxPoint x="110" y="680" />
            </Array>
          </mxGeometry>
        </mxCell>
        <mxCell id="0tu0lxEtGgN1aDyH10pK-3" value="Posee" style="shape=rhombus;perimeter=rhombusPerimeter;whiteSpace=wrap;html=1;align=center;fillColor=#fff2cc;strokeColor=#d6b656;" parent="1" vertex="1">
          <mxGeometry x="660" y="330" width="70" height="60" as="geometry" />
        </mxCell>
        <mxCell id="0tu0lxEtGgN1aDyH10pK-4" value="" style="endArrow=none;html=1;rounded=0;exitX=1;exitY=0.5;exitDx=0;exitDy=0;entryX=0.5;entryY=1;entryDx=0;entryDy=0;" parent="1" source="XAqeLbuuqDxMd4Kl4Otn-8" target="0tu0lxEtGgN1aDyH10pK-3" edge="1">
          <mxGeometry relative="1" as="geometry">
            <mxPoint x="290" y="370" as="sourcePoint" />
            <mxPoint x="450" y="370" as="targetPoint" />
            <Array as="points">
              <mxPoint x="695" y="470" />
            </Array>
          </mxGeometry>
        </mxCell>
        <mxCell id="0tu0lxEtGgN1aDyH10pK-5" value="1" style="resizable=0;html=1;whiteSpace=wrap;align=right;verticalAlign=bottom;" parent="0tu0lxEtGgN1aDyH10pK-4" connectable="0" vertex="1">
          <mxGeometry x="1" relative="1" as="geometry">
            <mxPoint y="20" as="offset" />
          </mxGeometry>
        </mxCell>
        <mxCell id="0tu0lxEtGgN1aDyH10pK-6" value="" style="endArrow=none;html=1;rounded=0;entryX=0.5;entryY=0;entryDx=0;entryDy=0;" parent="1" target="0tu0lxEtGgN1aDyH10pK-3" edge="1">
          <mxGeometry relative="1" as="geometry">
            <mxPoint x="570" y="230" as="sourcePoint" />
            <mxPoint x="450" y="370" as="targetPoint" />
            <Array as="points">
              <mxPoint x="695" y="230" />
            </Array>
          </mxGeometry>
        </mxCell>
        <mxCell id="0tu0lxEtGgN1aDyH10pK-7" value="N" style="resizable=0;html=1;whiteSpace=wrap;align=right;verticalAlign=bottom;" parent="0tu0lxEtGgN1aDyH10pK-6" connectable="0" vertex="1">
          <mxGeometry x="1" relative="1" as="geometry" />
        </mxCell>
        <mxCell id="HB_0qfSJj7j8hIu9EhYX-3" value="" style="endArrow=none;html=1;rounded=0;exitX=0.122;exitY=0;exitDx=0;exitDy=0;exitPerimeter=0;entryX=0.5;entryY=0;entryDx=0;entryDy=0;" parent="1" source="XAqeLbuuqDxMd4Kl4Otn-9" target="XAqeLbuuqDxMd4Kl4Otn-20" edge="1">
          <mxGeometry relative="1" as="geometry">
            <mxPoint x="330" y="350" as="sourcePoint" />
            <mxPoint x="490" y="350" as="targetPoint" />
            <Array as="points">
              <mxPoint x="111" y="90" />
              <mxPoint x="55" y="90" />
            </Array>
          </mxGeometry>
        </mxCell>
        <mxCell id="HB_0qfSJj7j8hIu9EhYX-4" value="N" style="resizable=0;html=1;whiteSpace=wrap;align=right;verticalAlign=bottom;" parent="HB_0qfSJj7j8hIu9EhYX-3" connectable="0" vertex="1">
          <mxGeometry x="1" relative="1" as="geometry" />
        </mxCell>
        <mxCell id="HB_0qfSJj7j8hIu9EhYX-5" value="&lt;h1&gt;&lt;span style=&quot;font-weight: normal;&quot;&gt;&lt;font style=&quot;font-size: 15px;&quot;&gt;NIF&lt;/font&gt;&lt;/span&gt;&lt;/h1&gt;" style="text;html=1;strokeColor=#d6b656;fillColor=#fff2cc;spacing=5;spacingTop=-20;whiteSpace=wrap;overflow=hidden;rounded=0;align=left;" parent="1" vertex="1">
          <mxGeometry x="360" y="910" width="40" height="40" as="geometry" />
        </mxCell>
        <mxCell id="HB_0qfSJj7j8hIu9EhYX-6" value="" style="endArrow=classic;html=1;rounded=0;exitX=0.25;exitY=0;exitDx=0;exitDy=0;fillColor=#fff2cc;strokeColor=#d6b656;entryX=0.5;entryY=1;entryDx=0;entryDy=0;" parent="1" source="HB_0qfSJj7j8hIu9EhYX-5" target="za0L7de45CTUgm3J9eNV-17" edge="1">
          <mxGeometry width="50" height="50" relative="1" as="geometry">
            <mxPoint x="540" y="930" as="sourcePoint" />
            <mxPoint x="220" y="880" as="targetPoint" />
            <Array as="points">
              <mxPoint x="370" y="880" />
              <mxPoint x="110" y="880" />
            </Array>
          </mxGeometry>
        </mxCell>
        <mxCell id="HB_0qfSJj7j8hIu9EhYX-7" value="" style="rounded=0;whiteSpace=wrap;html=1;" parent="1" vertex="1">
          <mxGeometry x="528.75" y="880" width="272.5" height="40" as="geometry" />
        </mxCell>
        <mxCell id="HB_0qfSJj7j8hIu9EhYX-8" value="&lt;h1&gt;&lt;font style=&quot;font-size: 15px;&quot;&gt;Están capacitados:&lt;/font&gt;&lt;/h1&gt;" style="text;html=1;strokeColor=#b85450;fillColor=#f8cecc;spacing=5;spacingTop=-20;whiteSpace=wrap;overflow=hidden;rounded=0;" parent="1" vertex="1">
          <mxGeometry x="528.75" y="880" width="152.5" height="40" as="geometry" />
        </mxCell>
        <mxCell id="HB_0qfSJj7j8hIu9EhYX-12" value="&lt;h1&gt;&lt;span style=&quot;font-size: 15px; font-weight: 400;&quot;&gt;Nombre&lt;/span&gt;&lt;/h1&gt;" style="text;html=1;strokeColor=#6c8ebf;fillColor=#dae8fc;spacing=5;spacingTop=-20;whiteSpace=wrap;overflow=hidden;rounded=0;align=left;" parent="1" vertex="1">
          <mxGeometry x="681.25" y="880" width="80" height="40" as="geometry" />
        </mxCell>
        <mxCell id="HB_0qfSJj7j8hIu9EhYX-13" value="&lt;h1&gt;&lt;span style=&quot;font-weight: normal;&quot;&gt;&lt;font style=&quot;font-size: 15px;&quot;&gt;NIF&lt;/font&gt;&lt;/span&gt;&lt;/h1&gt;" style="text;html=1;strokeColor=#6c8ebf;fillColor=#dae8fc;spacing=5;spacingTop=-20;whiteSpace=wrap;overflow=hidden;rounded=0;align=left;" parent="1" vertex="1">
          <mxGeometry x="761.25" y="880" width="40" height="40" as="geometry" />
        </mxCell>
        <mxCell id="HB_0qfSJj7j8hIu9EhYX-16" value="" style="endArrow=classic;html=1;rounded=0;fillColor=#f8cecc;strokeColor=#b85450;entryX=0.75;entryY=0;entryDx=0;entryDy=0;" parent="1" target="za0L7de45CTUgm3J9eNV-17" edge="1">
          <mxGeometry width="50" height="50" relative="1" as="geometry">
            <mxPoint x="780" y="880" as="sourcePoint" />
            <mxPoint x="210" y="790" as="targetPoint" />
            <Array as="points">
              <mxPoint x="780" y="810" />
              <mxPoint x="120" y="810" />
            </Array>
          </mxGeometry>
        </mxCell>
        <mxCell id="HB_0qfSJj7j8hIu9EhYX-17" value="" style="rounded=0;whiteSpace=wrap;html=1;" parent="1" vertex="1">
          <mxGeometry x="455" y="1030" width="356" height="40" as="geometry" />
        </mxCell>
        <mxCell id="HB_0qfSJj7j8hIu9EhYX-18" value="&lt;h1&gt;&lt;font style=&quot;font-size: 15px;&quot;&gt;Convocados:&lt;/font&gt;&lt;/h1&gt;" style="text;html=1;strokeColor=#b85450;fillColor=#f8cecc;spacing=5;spacingTop=-20;whiteSpace=wrap;overflow=hidden;rounded=0;" parent="1" vertex="1">
          <mxGeometry x="455" y="1030" width="106" height="40" as="geometry" />
        </mxCell>
        <mxCell id="HB_0qfSJj7j8hIu9EhYX-19" value="&lt;h1&gt;&lt;span style=&quot;font-weight: normal;&quot;&gt;&lt;font style=&quot;font-size: 15px;&quot;&gt;Id Instrumento&lt;/font&gt;&lt;/span&gt;&lt;/h1&gt;" style="text;html=1;strokeColor=#6c8ebf;fillColor=#dae8fc;spacing=5;spacingTop=-20;whiteSpace=wrap;overflow=hidden;rounded=0;align=left;" parent="1" vertex="1">
          <mxGeometry x="691" y="1030" width="120" height="40" as="geometry" />
        </mxCell>
        <mxCell id="HB_0qfSJj7j8hIu9EhYX-20" value="&lt;h1&gt;&lt;span style=&quot;font-size: 15px; font-weight: 400;&quot;&gt;Id Actuación&lt;/span&gt;&lt;/h1&gt;" style="text;html=1;strokeColor=#6c8ebf;fillColor=#dae8fc;spacing=5;spacingTop=-20;whiteSpace=wrap;overflow=hidden;rounded=0;align=left;" parent="1" vertex="1">
          <mxGeometry x="561" y="1030" width="95" height="40" as="geometry" />
        </mxCell>
        <mxCell id="HB_0qfSJj7j8hIu9EhYX-21" value="&lt;h1&gt;&lt;span style=&quot;font-size: 15px; font-weight: 400;&quot;&gt;NIF&lt;/span&gt;&lt;/h1&gt;" style="text;html=1;strokeColor=#6c8ebf;fillColor=#dae8fc;spacing=5;spacingTop=-20;whiteSpace=wrap;overflow=hidden;rounded=0;align=left;" parent="1" vertex="1">
          <mxGeometry x="656" y="1030" width="35" height="40" as="geometry" />
        </mxCell>
        <mxCell id="HB_0qfSJj7j8hIu9EhYX-22" value="" style="endArrow=classic;html=1;rounded=0;fillColor=#f8cecc;strokeColor=#b85450;exitX=0.408;exitY=-0.05;exitDx=0;exitDy=0;exitPerimeter=0;" parent="1" edge="1" source="HB_0qfSJj7j8hIu9EhYX-19">
          <mxGeometry width="50" height="50" relative="1" as="geometry">
            <mxPoint x="740" y="950" as="sourcePoint" />
            <mxPoint x="180" y="950" as="targetPoint" />
            <Array as="points">
              <mxPoint x="740" y="980" />
              <mxPoint x="180" y="980" />
            </Array>
          </mxGeometry>
        </mxCell>
        <mxCell id="-PAqiD29cceni_rPEg2_-1" value="" style="endArrow=classic;html=1;rounded=0;exitX=0.5;exitY=0;exitDx=0;exitDy=0;fillColor=#f8cecc;strokeColor=#b85450;entryX=0.75;entryY=1;entryDx=0;entryDy=0;" edge="1" parent="1" source="HB_0qfSJj7j8hIu9EhYX-21" target="za0L7de45CTUgm3J9eNV-17">
          <mxGeometry width="50" height="50" relative="1" as="geometry">
            <mxPoint x="390" y="760" as="sourcePoint" />
            <mxPoint x="140" y="870" as="targetPoint" />
            <Array as="points">
              <mxPoint x="673" y="930" />
              <mxPoint x="500" y="930" />
              <mxPoint x="500" y="870" />
              <mxPoint x="120" y="870" />
            </Array>
          </mxGeometry>
        </mxCell>
        <mxCell id="-PAqiD29cceni_rPEg2_-9" value="" style="rounded=0;whiteSpace=wrap;html=1;" vertex="1" parent="1">
          <mxGeometry x="209" y="760" width="235" height="40" as="geometry" />
        </mxCell>
        <mxCell id="-PAqiD29cceni_rPEg2_-14" value="&lt;h1&gt;&lt;font style=&quot;font-size: 15px;&quot;&gt;Autores-obras:&lt;/font&gt;&lt;/h1&gt;" style="text;html=1;strokeColor=#6c8ebf;fillColor=#dae8fc;spacing=5;spacingTop=-20;whiteSpace=wrap;overflow=hidden;rounded=0;" vertex="1" parent="1">
          <mxGeometry x="209" y="760" width="125" height="40" as="geometry" />
        </mxCell>
        <mxCell id="-PAqiD29cceni_rPEg2_-15" value="&lt;h1&gt;&lt;span style=&quot;font-weight: normal;&quot;&gt;&lt;font style=&quot;font-size: 15px;&quot;&gt;&lt;u&gt;Id Obra&lt;/u&gt;&lt;/font&gt;&lt;/span&gt;&lt;/h1&gt;" style="text;html=1;strokeColor=#6c8ebf;fillColor=#dae8fc;spacing=5;spacingTop=-20;whiteSpace=wrap;overflow=hidden;rounded=0;align=left;" vertex="1" parent="1">
          <mxGeometry x="334" y="760" width="60" height="40" as="geometry" />
        </mxCell>
        <mxCell id="-PAqiD29cceni_rPEg2_-16" value="&lt;h1&gt;&lt;span style=&quot;font-weight: normal;&quot;&gt;&lt;font style=&quot;font-size: 15px;&quot;&gt;Autores&lt;/font&gt;&lt;/span&gt;&lt;/h1&gt;" style="text;html=1;strokeColor=#6c8ebf;fillColor=#dae8fc;spacing=5;spacingTop=-20;whiteSpace=wrap;overflow=hidden;rounded=0;align=left;" vertex="1" parent="1">
          <mxGeometry x="394" y="760" width="60" height="40" as="geometry" />
        </mxCell>
        <mxCell id="-PAqiD29cceni_rPEg2_-17" value="" style="endArrow=classic;html=1;rounded=0;exitX=0.5;exitY=0;exitDx=0;exitDy=0;entryX=0.25;entryY=1;entryDx=0;entryDy=0;fillColor=#f8cecc;strokeColor=#b85450;" edge="1" parent="1" source="-PAqiD29cceni_rPEg2_-15" target="za0L7de45CTUgm3J9eNV-3">
          <mxGeometry width="50" height="50" relative="1" as="geometry">
            <mxPoint x="390" y="760" as="sourcePoint" />
            <mxPoint x="440" y="710" as="targetPoint" />
            <Array as="points">
              <mxPoint x="364" y="690" />
              <mxPoint x="95" y="690" />
            </Array>
          </mxGeometry>
        </mxCell>
        <mxCell id="-PAqiD29cceni_rPEg2_-18" value="" style="endArrow=classic;html=1;rounded=0;entryX=0.25;entryY=1;entryDx=0;entryDy=0;exitX=0.25;exitY=0;exitDx=0;exitDy=0;fillColor=#f8cecc;strokeColor=#b85450;" edge="1" parent="1" source="HB_0qfSJj7j8hIu9EhYX-20" target="za0L7de45CTUgm3J9eNV-11">
          <mxGeometry width="50" height="50" relative="1" as="geometry">
            <mxPoint x="390" y="760" as="sourcePoint" />
            <mxPoint x="440" y="710" as="targetPoint" />
            <Array as="points">
              <mxPoint x="585" y="1000" />
              <mxPoint x="10" y="1000" />
              <mxPoint x="10" y="760" />
              <mxPoint x="145" y="760" />
            </Array>
          </mxGeometry>
        </mxCell>
        <mxCell id="-PAqiD29cceni_rPEg2_-21" value="&lt;h1&gt;Esquema Relacional&lt;/h1&gt;" style="text;html=1;strokeColor=none;fillColor=none;spacing=5;spacingTop=-20;whiteSpace=wrap;overflow=hidden;rounded=0;" vertex="1" parent="1">
          <mxGeometry x="10" y="550" width="280" height="37.5" as="geometry" />
        </mxCell>
        <mxCell id="-PAqiD29cceni_rPEg2_-22" value="&lt;h1&gt;Entidad/Relación&lt;/h1&gt;" style="text;html=1;strokeColor=none;fillColor=none;spacing=5;spacingTop=-20;whiteSpace=wrap;overflow=hidden;rounded=0;" vertex="1" parent="1">
          <mxGeometry x="610" y="10" width="210" height="40" as="geometry" />
        </mxCell>
        <mxCell id="-PAqiD29cceni_rPEg2_-23" value="" style="endArrow=classic;html=1;rounded=0;exitX=0.5;exitY=1;exitDx=0;exitDy=0;entryX=0.75;entryY=0;entryDx=0;entryDy=0;fillColor=#f8cecc;strokeColor=#b85450;" edge="1" parent="1" source="HB_0qfSJj7j8hIu9EhYX-12" target="za0L7de45CTUgm3J9eNV-33">
          <mxGeometry width="50" height="50" relative="1" as="geometry">
            <mxPoint x="390" y="860" as="sourcePoint" />
            <mxPoint x="440" y="810" as="targetPoint" />
            <Array as="points">
              <mxPoint x="721" y="1010" />
              <mxPoint x="260" y="1010" />
            </Array>
          </mxGeometry>
        </mxCell>
      </root>
    </mxGraphModel>
  </diagram>
</mxfile>
